<?xml version="1.0" encoding="UTF-8"?>
<!-- Generated by Pixelmator Pro 3.4 -->
<svg width="1444" height="894" viewBox="0 0 1444 894" xmlns="http://www.w3.org/2000/svg">
    <path id="Path" fill="#1e1f4e" stroke="none" d="M 1076.609985 351.25 C 1009.599976 387.869995 833.699951 389.699951 736.300049 390.530029 C 715.219971 390.719971 697.160034 390.959961 683.97998 391.369995 C 607.440002 394.119995 577.409973 427.23999 539 469.189941 C 504.169983 507.199951 464.679993 550.309937 379.880005 582.209961 C 317.5 605.819946 278.059998 584.619995 240.159973 563.97998 C 212.960022 549.669922 187.539978 535.809937 154.400024 537.780029 C 67.029999 543.329956 49.890015 593.76001 33.230011 642.52002 C 25.01001 666.839966 17.179993 689.809937 1.130005 707.640015 L -0.450012 706.52002 C 15.140015 688.939941 22.980011 665.959961 31.109985 641.97998 C 48.089996 592.77002 65.640015 541.539917 154.169983 535.929932 C 187.75 533.719971 213.659973 547.880005 240.98999 562.400024 C 278.630005 582.609985 317.599976 603.51001 379.070007 580.390015 C 463.419983 548.73999 502.690002 505.75 537.289978 467.859985 C 574.390015 427.190063 606.400024 392.420044 683.73999 389.52002 C 696.800049 388.900024 714.98999 388.869995 736.060059 388.680054 C 840.160034 387.579956 1033.550049 385.550049 1087.469971 341.630005 C 1099.050049 332.180054 1111.209961 322.709961 1123.900024 312.650024 C 1181.670044 267.199951 1247.410034 215.699951 1277.369995 155.430054 C 1280.459961 149.209961 1283.319946 143.109985 1286.410034 136.890015 C 1312.329956 84.209961 1338.719971 29.849976 1390.48999 1.560059 C 1391.160034 1.190063 1391.829956 0.819946 1392.72998 0.329956 L 1393.76001 2.030029 C 1393.089966 2.390015 1392.420044 2.76001 1391.73999 3.130005 C 1340.420044 31.180054 1314.119995 85.199951 1288.650024 137.640015 C 1285.560059 143.859985 1282.689941 149.959961 1279.599976 156.180054 C 1249.319946 216.910034 1183.579956 268.410034 1125.709961 314.199951 C 1113.01001 324.25 1100.859985 333.72998 1089.280029 343.180054 C 1085.280029 345.930054 1081.280029 348.690063 1076.569946 351.25 Z M 1049.73999 362.540039 C 1057.01001 358.280029 1064.5 353.910034 1072.209961 349.410034 C 1150.47998 303.800049 1239.030029 252.01001 1284.030029 170.780029 C 1291.329956 157.72998 1298.199951 143.48999 1304.890015 129.930054 C 1328.040039 83.01001 1351.890015 34.290039 1397.380005 9.430054 C 1397.599976 9.310059 1397.829956 9.180054 1398.050049 9.069946 L 1397.02002 7.369995 C 1396.790039 7.48999 1396.569946 7.619995 1396.349976 7.73999 C 1350.180054 32.969971 1326.329956 81.690063 1303.089966 128.940063 C 1296.400024 142.51001 1289.400024 156.530029 1282.22998 169.790039 C 1237.550049 250.560059 1149.01001 302.349976 1071.189941 347.719971 C 1063.469971 352.219971 1055.97998 356.599976 1048.719971 360.849976 C 1047.380005 361.589966 1046.25 362.199951 1044.910034 362.930054 C 966.689941 405.680054 758.339966 420.420044 678.869995 426.190063 L 677.939941 426.130005 C 604.330017 431.23999 568.159973 462.619995 526.619995 498.910034 C 489.369995 531.449951 447.380005 567.98999 368.909973 595.579956 C 311.880005 615.699951 274.179993 596.380005 237.440002 577.660034 C 210.5 563.77002 185.01001 550.799927 152.710022 553.160034 C 68.869995 559.619995 53.179993 610.949951 38.100006 660.829956 C 31 684.530029 24.059998 707.02002 10.040009 723.73999 L 11.619995 724.859985 C 25.959991 707.669922 32.679993 685.309937 40 661.48999 C 54.899994 612.289917 70.399994 561.619995 153.210022 555.439941 C 185.030029 552.780029 210.289978 565.880005 237.099976 579.549927 C 273.969971 598.47998 312.150024 618.109985 370.080017 597.5 C 448.77002 569.789917 491.080017 532.789917 528.460022 500.459961 C 569.780029 464.289917 605.48999 433.150024 678.530029 428.069946 L 679.459961 428.130005 C 758.939941 422.359985 967.640015 407.709961 1046.310059 364.719971 C 1047.430054 364.109985 1048.780029 363.369995 1049.77002 362.550049 Z M 1288.98999 185.339966 C 1299.390015 168.040039 1308.170044 149.079956 1317.119995 130.890015 C 1338.540039 86.050049 1360.569946 39.73999 1403.02002 16.26001 L 1401.98999 14.560059 C 1358.869995 38.410034 1336.609985 84.839966 1315.089966 130.02002 C 1306.5 148.310059 1297.359985 167.180054 1287.189941 184.349976 C 1225.369995 287.52002 1112.52002 336.160034 1012.880005 379.01001 L 1009.839966 380.390015 C 923.869995 417.75 749.709961 454.869995 672.01001 463.069946 C 602.130005 470.390015 562.130005 497.910034 516.02002 529.630005 C 476.469971 556.910034 431.570007 587.679932 358.98999 611.199951 C 306.280029 628.109985 269.830017 610.369995 234.349976 593.22998 C 207.710022 580.319946 182.599976 567.97998 151.719971 570.699951 C 71.51001 577.719971 57.149994 631.72998 44.48999 679.709961 C 38.640015 703.01001 32.820007 724.890015 20.369995 740.75 L 21.950012 741.869995 C 34.630005 725.880005 40.540009 703.669922 46.619995 680.23999 C 59.75 630.579956 73.350006 579.25 152.179993 572.419922 C 182.26001 569.859985 207.23999 581.97998 233.75 594.679932 C 269.359985 612.030029 306.52002 629.959961 359.900024 612.679932 C 432.700012 589.030029 477.820007 558.150024 517.369995 530.869995 C 563.26001 499.280029 603.039978 471.869995 672.339966 464.589966 C 750.040039 456.390015 924.430054 419.150024 1010.630005 381.670044 L 1013.670044 380.290039 C 1052.48999 363.599976 1093.459961 346.030029 1132.449951 324.719971 C 1193.98999 291.369995 1251 248.599976 1289.01001 185.349976 Z M 1293.949951 199.900024 C 1306.609985 179.949951 1316.890015 157.060059 1326.880005 135.180054 C 1347.660034 89.27002 1367.319946 45.949951 1407.72998 23.030029 L 1406.699951 21.329956 C 1388.22998 31.709961 1372.410034 47.440063 1358.150024 69.670044 C 1345.359985 89.400024 1335.079956 112.290039 1325.219971 134.390015 C 1315.22998 156.280029 1305.050049 178.829956 1292.390015 198.790039 C 1218.939941 314.26001 1098.699951 359.589966 971.420044 399.690063 C 937.77002 410.150024 899.839966 424.369995 859.859985 439.140015 C 789.410034 465.179932 716.589966 492.23999 666.630005 499.429932 C 601.280029 508.809937 557.409973 531.929932 506.599976 558.849976 C 464.650024 581.209961 416.75 606.530029 349.48999 626.02002 C 301.219971 639.939941 266.030029 623.77002 231.809998 608.199951 C 205.359985 596.599976 180.559998 585.23999 151.179993 587.97998 C 74.950012 595.650024 62.609985 650.539917 51.720001 698.97998 C 46.640015 721.579956 41.709991 742.959961 31.049988 757.849976 L 32.630005 758.969971 C 43.73999 743.839966 48.540009 722.23999 53.839996 699.51001 C 64.76001 651.630005 76.910004 597.410034 151.76001 589.919922 C 180.559998 587.209961 205.23999 598.359985 231.369995 610.419922 C 265.719971 626.189941 301.619995 642.539917 350.330017 628.380005 C 417.820007 608.77002 465.719971 583.449951 507.890015 560.959961 C 558.47998 534.160034 602 510.949951 667.119995 501.699951 C 717.079956 494.5 790.119995 467.329956 860.800049 441.160034 C 900.780029 426.390015 938.709961 412.180054 972.359985 401.719971 C 1034.530029 382.190063 1095.119995 361.540039 1149.349976 331.890015 C 1206.02002 300.349976 1256.069946 259.400024 1293.959961 199.900024 Z M 1298.689941 214.589966 C 1313.530029 192.319946 1324.650024 166.410034 1335.369995 141.300049 C 1354.900024 95.800049 1373.189941 52.670044 1412.23999 30.469971 L 1411.209961 28.77002 C 1371.609985 51.540039 1353.099976 94.800049 1333.47998 140.640015 C 1322.76001 165.75 1311.849976 191.540039 1296.890015 213.599976 C 1206.599976 349.040039 1061.22998 390.819946 932.310059 419.359985 C 878.359985 431.290039 828.829956 458.359985 780.73999 484.359985 C 737.939941 507.75 697.459961 529.589966 660.469971 536.5 C 600.77002 547.319946 551.700012 566.77002 499.669983 587.280029 C 452.070007 606.209961 402.76001 625.799927 338.97998 641.679932 C 295.51001 652.689941 261.809998 637.969971 229.190002 624.079956 C 202.869995 612.689941 178 602.209961 149.909973 605.109985 C 77.529999 613.22998 67.339996 669.209961 58.130005 718.419922 C 54.170013 740.410034 50.230011 760.969971 41.01001 774.789917 L 42.809998 775.780029 C 52.25 761.839966 55.929993 740.859985 60.109985 718.75 C 69.140015 670.199951 79.48999 614.97998 150.27002 607.179932 C 177.880005 603.97998 202.52002 614.589966 228.48999 625.890015 C 261.590027 640.089966 295.52002 654.679932 339.559998 643.640015 C 403.570007 627.630005 452.869995 608.049927 500.469971 589.119995 C 552.140015 568.530029 601.219971 549.069946 660.920044 538.26001 C 698.27002 531.439941 738.839966 509.27002 781.77002 486.089966 C 829.5 460 879.170044 433.140015 932.540039 421.25 C 1004.670044 405.339966 1081.969971 385.180054 1151.900024 346.969971 C 1207.47998 316.589966 1258.530029 274.819946 1298.699951 214.630005 Z M 1303.430054 229.280029 C 1320.339966 205.02002 1331.880005 176.349976 1343.01001 148.459961 C 1361.25 102.810059 1378.73999 59.829956 1416.51001 37.48999 L 1415.47998 35.790039 C 1377.030029 58.5 1359.680054 101.680054 1340.98999 147.579956 C 1329.73999 175.25 1318.189941 203.940063 1301.51001 228.069946 C 1254.089966 296.469971 1193.130005 346.48999 1115.099976 381.199951 C 1041.02002 414.040039 961.280029 428.72998 893.310059 438.689941 C 830.27002 447.929932 786.420044 484.359985 747.630005 516.319946 C 717.219971 541.439941 688.459961 565.369995 654.51001 572.869995 C 607.77002 583.400024 563.130005 595.910034 515.98999 609.209961 C 457.919983 625.650024 398.02002 642.530029 328.809998 656.849976 C 290.150024 664.949951 257.830017 652.030029 226.909973 639.469971 C 200.530029 628.959961 175.700012 619.030029 148.789978 622.410034 C 80.390015 631.179932 71.690002 690.599976 64.809998 738.25 C 61.709991 759.199951 58.899994 779.150024 51.339996 791.780029 L 53.01001 792.559937 C 60.660004 779.599976 63.470001 759.650024 66.670013 738.369995 C 74.029999 689.030029 81.98999 632.849976 149.369995 624.349976 C 175.700012 621.01001 200.530029 630.939941 226.559998 641.359985 C 258.049988 653.890015 290.5 667.02002 329.73999 658.890015 C 398.950012 644.569946 458.849976 627.699951 516.919983 611.25 C 564.059998 597.949951 608.580017 585.22998 655.439941 574.910034 C 689.609985 567.280029 718.589966 543.22998 749.449951 517.869995 C 788.02002 486.030029 831.650024 449.72998 894.23999 440.719971 C 962.439941 430.630005 1042.300049 416.160034 1116.609985 383.199951 C 1129.359985 377.650024 1141.5 371.579956 1153.150024 365.209961 C 1213.849976 331.469971 1263.439941 286.810059 1303.430054 229.280029 Z M 1308.400024 243.839966 C 1327.069946 218.060059 1338.890015 186.400024 1350.319946 156.069946 C 1367.72998 110.02002 1384.160034 66.780029 1421.349976 44.469971 L 1420.439941 42.97998 C 1382.800049 65.530029 1366.050049 109.23999 1348.77002 155.5 C 1337.339966 185.819946 1325.390015 217.27002 1306.939941 242.930054 C 1187.829956 408.560059 1019.369995 444.27002 855.01001 458.199951 C 785.150024 464.089966 752.400024 507.47998 723.609985 545.589966 C 702.089966 574.059937 681.97998 600.910034 649.380005 609.660034 C 552.619995 635.630005 433.190002 654.73999 319.549988 672.099976 C 285.690002 677.289917 255.330017 666.130005 226.039978 655.23999 C 199.340027 645.189941 174.090027 636.049927 148.25 639.699951 C 83.25 649.160034 77.059998 709.75 72.109985 758.619995 C 70.040009 779.289917 68.149994 797.319946 62.26001 808.75 L 63.929993 809.530029 C 69.920013 797.76001 71.809998 779.72998 73.970001 758.72998 C 79.079987 710.619995 85.089996 650.699951 148.700012 641.419922 C 174.190002 637.689941 198.98999 647.069946 225.559998 656.910034 C 255.210022 667.890015 285.700012 679.27002 320.140015 674.039917 C 434 656.559937 553.210022 637.569946 650.189941 611.47998 C 683.359985 602.699951 703.800049 575.390015 725.530029 546.799927 C 754.109985 508.809937 786.540039 465.880005 855.589966 460.150024 C 956.900024 451.51001 1059.569946 434.77002 1151.680054 384.420044 C 1208.569946 352.76001 1262.339966 308.089966 1308.390015 243.829956 Z M 1312.910034 258.650024 C 1333.339966 231.339966 1345.25 197.359985 1357.089966 164.27002 C 1373.660034 117.829956 1389.349976 73.859985 1425.73999 51.699951 L 1424.829956 50.209961 C 1387.76001 72.72998 1371.98999 117.040039 1355.319946 163.819946 C 1343.569946 196.579956 1331.670044 230.560059 1311.459961 257.73999 C 1175.380005 441.140015 992.719971 472.150024 815.680054 477.98999 C 739.810059 480.369995 719.280029 530.109985 701.150024 574 C 687.859985 606.179932 675.27002 636.569946 643.219971 646.719971 C 574.130005 668.619995 471.690002 675.890015 381.23999 682.280029 C 355.73999 684.039917 331.75 685.819946 309.400024 687.839966 C 280.820007 690.429932 252.869995 680.780029 225.76001 671.52002 C 198.039978 661.75 171.890015 653.099976 146.880005 657.140015 C 85.420013 667.51001 81.579987 732.469971 78.75 779.900024 C 77.630005 799.199951 76.700012 815.849976 72.339996 825.880005 L 74.23999 826.539917 C 78.690002 816.179932 79.850006 799.400024 80.829987 779.890015 C 83.880005 730.359985 87.470001 668.929932 147.340027 658.869995 C 171.98999 654.73999 197.690002 663.640015 225.159973 672.97998 C 252.280029 682.23999 280.570007 691.97998 309.72998 689.349976 C 332.090027 687.329956 356.200012 685.76001 381.580017 683.789917 C 472.25 677.280029 574.919983 669.890015 644 647.98999 C 676.839966 637.689941 689.630005 606.630005 703.01001 574.109985 C 721.73999 528.76001 741.290039 481.819946 815.869995 479.299927 C 928.48999 475.52002 1043.619995 461.599976 1147.380005 404.890015 C 1207.130005 372.52002 1262.959961 325.859985 1312.890015 258.650024 Z M 1317.869995 273.209961 C 1339.829956 244.5 1352.050049 208.089966 1363.76001 172.800049 C 1379.589966 125.630005 1394.439941 81.27002 1430.47998 59.02002 L 1429.579956 57.530029 C 1392.859985 80.150024 1378.050049 125.060059 1361.98999 172.349976 C 1350.150024 207.420044 1338.160034 243.709961 1316.420044 272.300049 C 1247.75 362.22998 1166.709961 422.940063 1068.089966 458.140015 C 988.280029 486.459961 898.430054 498.75 777.25 497.289917 C 695.849976 496.459961 687.810059 549.569946 680.099976 600.789917 C 674.719971 637.150024 669.550049 671.410034 637.609985 683.199951 C 573.719971 706.780029 456.809998 704.969971 363.099976 703.52002 C 339.900024 703.169922 318.219971 702.849976 299.440002 702.910034 C 276.280029 703.109985 251.450012 695.150024 227.450012 687.589966 C 198.030029 678.459961 170.599976 669.660034 145.75 674.459961 C 87.470001 685.640015 86.559998 752.969971 85.690002 802.160034 C 85.5 819.539917 85.26001 834.390015 82.440002 843.02002 L 84.200012 843.469971 C 87.119995 834.51001 87.220001 819.439941 87.640015 801.939941 C 88.320007 753.419922 89.519989 687.059937 146.070007 675.97998 C 170.109985 671.329956 197.77002 680.01001 226.609985 689.169922 C 250.599976 696.73999 275.659973 704.559937 299.169983 704.459961 C 317.940002 704.400024 339.630005 704.719971 362.820007 705.069946 C 456.890015 706.619995 573.799988 708.429932 638.140015 684.599976 C 670.75 672.439941 676.109985 637.51001 681.810059 600.699951 C 689.319946 550.150024 697.310059 497.919922 776.969971 498.849976 C 898.589966 500.059937 988.569946 487.98999 1068.609985 459.549927 C 1094.920044 450.27002 1120.060059 439.079956 1144.040039 425.969971 C 1210.160034 389.839966 1267.48999 339.25 1317.839966 273.209961 Z M 1322.829956 287.77002 C 1346.329956 257.650024 1358.640015 218.930054 1370.430054 181.329956 C 1385.300049 133.560059 1399.630005 88.339966 1435.319946 66 L 1434.410034 64.51001 C 1398.180054 87.420044 1383.97998 132.849976 1368.660034 180.869995 C 1356.959961 218.130005 1344.790039 257.069946 1321.380005 286.859985 C 1245.609985 383.780029 1157.400024 448.410034 1051.949951 483.669922 C 966.140015 512.439941 866.569946 522.959961 738.380005 516.839966 C 709.439941 515.380005 689.150024 520.809937 675.910034 533.419922 C 654.140015 554.099976 656.329956 591.130005 658.680054 626.949951 C 661.109985 667.819946 663.630005 706.369995 631.920044 720.02002 C 567.380005 747.929932 411.659973 731.359985 318.450012 721.410034 C 307.960022 720.349976 298.039978 719.26001 289.530029 718.530029 C 272.390015 716.849976 253.159973 711.219971 232.72998 705.109985 C 201.799988 695.959961 169.809998 686.530029 144.780029 692 C 89 704.359985 91.709991 777.640015 93.339996 826.030029 C 93.779999 840.52002 94.209991 853.02002 92.920013 860.23999 L 94.910004 860.559937 C 96.429993 853.219971 95.859985 840.5 95.420013 826.01001 C 93.829987 778.169922 91.410004 705.859985 145.460022 693.589966 C 169.919983 688.160034 201.909973 697.579956 232.47998 706.640015 C 252.909973 712.75 272.140015 718.380005 289.51001 719.939941 C 298.140015 720.890015 307.929993 721.77002 318.429993 722.829956 C 411.640015 732.780029 567.940002 749.319946 632.699951 721.280029 C 634.170044 720.76001 635.52002 720.030029 636.859985 719.289917 C 665.319946 703.72998 663.099976 666.150024 660.51001 626.5 C 658.420044 591.109985 656.130005 554.410034 677.359985 534.309937 C 690.050049 522.280029 710.119995 516.97998 738.349976 518.26001 C 866.890015 524.47998 966.689941 513.829956 1052.72998 484.939941 C 1083.26001 474.77002 1112.25 462.039917 1140.040039 446.849976 C 1208.300049 409.829956 1268.73999 356.969971 1322.829956 287.76001 Z M 638.209961 651.72998 C 629.079956 613.109985 619.630005 572.959961 638.73999 552.319946 C 649.930054 540.26001 669.439941 535.539917 698.900024 537.849976 C 836.089966 548.969971 943.310059 540.219971 1036.140015 510.719971 C 1148.619995 474.73999 1244.030029 406.72998 1327.439941 302.23999 C 1352.609985 270.930054 1364.640015 229.800049 1376.300049 190.01001 C 1390.650024 141.380005 1404.02002 95.560059 1439.449951 72.800049 L 1438.319946 71.430054 C 1402.439941 94.440063 1388.76001 140.719971 1374.530029 189.560059 C 1362.869995 229.349976 1350.699951 270.26001 1325.98999 301.329956 C 1242.900024 405.369995 1147.839966 473.459961 1035.459961 509.099976 C 942.97998 538.689941 835.98999 547.309937 699.02002 536.069946 C 668.849976 533.579956 648.880005 538.549927 637.380005 551.059937 C 617.72998 572.280029 627.219971 612.969971 636.369995 652.150024 C 646.939941 697.069946 656.880005 739.5 627.069946 755.789917 C 626.619995 756.039917 626.170044 756.280029 625.72998 756.52002 C 598.320007 770.369995 539.48999 772.780029 455.719971 763.619995 C 391.440002 756.549927 320.869995 743.579956 279.219971 733.48999 C 270.159973 731.359985 259.530029 728.109985 248.200012 724.669922 C 213.969971 714.5 170.98999 701.72998 143.390015 708.880005 C 89.929993 723.089966 97.589996 806.97998 101.579987 852.380005 C 102.609985 863.429932 103.390015 872.069946 103.019989 877.369995 L 104.880005 877.47998 C 105.119995 871.969971 104.340027 863.329956 103.309998 852.280029 C 99.26001 807.77002 91.76001 724.630005 144.109985 711.039917 C 171.130005 703.919922 213.75 716.599976 247.76001 726.900024 C 259.099976 730.329956 269.72998 733.579956 279.01001 735.589966 C 348.169983 752.169922 560.47998 791.619995 626.670044 758.559937 L 628.01001 757.819946 C 659.030029 740.579956 648.560059 695.329956 638.199951 651.709961 Z M 621.160034 794.719971 C 653.589966 775.859985 634.310059 724.949951 615.619995 675.969971 C 599.679993 633.98999 583.190002 590.609985 600.659973 569.72998 C 610.590027 558.069946 629.920044 554.02002 660.25 557.27002 C 806.089966 573.289917 920.5 566.559937 1020 536.25 C 1139.410034 499.880005 1241.540039 428.199951 1332.400024 316.810059 C 1358.869995 284.219971 1371 240.77002 1382.52002 198.790039 C 1396.130005 149.440063 1408.97998 102.76001 1444.060059 79.910034 L 1443.280029 78.630005 C 1407.530029 101.849976 1394.579956 148.859985 1380.880005 198.540039 C 1369.22998 240.310059 1357.329956 283.630005 1330.949951 315.890015 C 1240.410034 426.819946 1138.5 498.380005 1019.449951 534.839966 C 920.170044 565.030029 805.97998 571.640015 660.5 555.709961 C 629.459961 552.280029 609.460022 556.699951 599.210022 568.819946 C 581.099976 590.609985 596.909973 632.380005 613.919983 676.609985 C 632.219971 724.949951 651.209961 774.890015 620.25 793.219971 C 587.049988 812.780029 497.380005 801.75 447.039978 793.579956 C 369.900024 781.079956 298.090027 761.130005 269.75 748.869995 C 242.599976 737.089966 175.950012 716.299927 142.619995 726.309937 C 88.720001 742.73999 105.559998 845.689941 111.900024 884.140015 C 112.619995 888.280029 113.309998 891.859985 113.570007 894.27002 L 115.52002 894.049927 C 115.130005 891.429932 114.570007 888.049927 113.849976 883.919922 C 107.650024 845.679932 91 744.039917 143.200012 728.26001 C 173.099976 719 234.630005 735.780029 268.820007 750.799927 C 328.710022 776.689941 559.640015 828.619995 619.930054 795.669922 C 620.25 795.209961 620.699951 794.969971 621.150024 794.719971 Z"/>
</svg>
