
<svg width="34.9895827px" height="34.9843747px" viewBox="0 0 34.9895827 34.9843747" version="1.1" xmlns="http://www.w3.org/2000/svg" xmlns:xlink="http://www.w3.org/1999/xlink">
  <defs>
    <polygon id="path-w_7x5nyrso-1" points="0 0 34.9895827 0 34.9895827 34.9843747 0 34.9843747"></polygon>
  </defs>
  <g id="Page-1" stroke="none" stroke-width="1" fill="none" fill-rule="evenodd">
    <g id="Social-Icons" transform="translate(0, -49.2917)">
      <g id="Clipped" transform="translate(0, 49.2917)">
        <mask id="mask-w_7x5nyrso-2" fill="white">
          <use xlink:href="#path-w_7x5nyrso-1"></use>
        </mask>
        <g id="Path"></g>
        <path d="M17.5885413,3.17187467 C22.2864587,3.17187467 22.8385413,3.1875 24.697916,3.27083333 C26.4114587,3.34895867 27.3437507,3.63541733 27.9687507,3.880208 C28.7864587,4.197916 29.369792,4.58333333 29.9895827,5.197916 C30.6041667,5.817708 30.9843747,6.40104133 31.307292,7.21875067 C31.5468747,7.83333333 31.8333333,8.77083333 31.9166667,10.4895827 C32,12.3437507 32.0156253,12.9010413 32.0156253,17.5989587 C32.0156253,22.2916667 32,22.8489587 31.9166667,24.7083333 C31.8385413,26.4166667 31.552084,27.3489587 31.307292,27.9739587 C30.9895827,28.7916667 30.6041667,29.380208 29.9895827,29.994792 C29.369792,30.6145827 28.7864587,30.9895827 27.9687507,31.3125 C27.3541667,31.552084 26.4166667,31.8385413 24.697916,31.9218747 C22.8385413,32.005208 22.2864587,32.0208333 17.5885413,32.0208333 C12.8958333,32.0208333 12.3385413,32.005208 10.4791667,31.9218747 C8.77083333,31.8437507 7.83854133,31.5625 7.21354133,31.3125 C6.39583333,31 5.807292,30.6145827 5.192708,29.994792 C4.572916,29.380208 4.197916,28.7916667 3.875,27.9739587 C3.63541733,27.3593747 3.34895867,26.427084 3.26562533,24.7083333 C3.177084,22.8489587 3.16145867,22.2916667 3.16145867,17.5989587 C3.16145867,12.9010413 3.177084,12.3437507 3.26562533,10.4895827 C3.34375067,8.77604133 3.625,7.84375067 3.875,7.21875067 C4.1875,6.40104133 4.572916,5.817708 5.192708,5.197916 C5.807292,4.58333333 6.39583333,4.20312533 7.21354133,3.880208 C7.82812533,3.64062533 8.76041733,3.35416667 10.4791667,3.27083333 C12.3385413,3.1875 12.8958333,3.17187467 17.5885413,3.17187467 M17.5885413,0 C12.807292,0 12.2135413,0.0260413333 10.3333333,0.109374667 C8.46354133,0.192708 7.182292,0.494792 6.0625,0.927084 C4.90624933,1.375 3.927084,1.97395867 2.947916,2.95312533 C1.97395867,3.932292 1.375,4.91145867 0.927084,6.067708 C0.494792,7.1875 0.197916,8.46875067 0.109374667,10.3437507 C0.0260413333,12.2135413 0,12.817708 0,17.5885413 C0,22.369792 0.0260413333,22.9635413 0.109374667,24.8437507 C0.197916,26.7187507 0.494792,28 0.927084,29.1145827 C1.375,30.2708333 1.97395867,31.25 2.95312533,32.2291667 C3.9375,33.2083333 4.91666667,33.8125 6.072916,34.2604173 C7.1875,34.692708 8.46875067,34.9895827 10.3437507,35.0781253 C12.2135413,35.1614587 12.817708,35.182292 17.5989587,35.182292 C22.380208,35.182292 22.9739587,35.1614587 24.8541667,35.0781253 C26.7291667,34.9895827 28.005208,34.692708 29.125,34.2604173 C30.2812493,33.8125 31.2604173,33.2083333 32.2395827,32.2291667 C33.2187507,31.25 33.822916,30.2708333 34.2656253,29.1145827 C34.697916,28 35,26.7187507 35.0833333,24.8437507 C35.1718747,22.9687507 35.192708,22.369792 35.192708,17.5885413 C35.192708,12.807292 35.1718747,12.2135413 35.0833333,10.3333333 C35,8.45833333 34.697916,7.182292 34.2656253,6.0625 C33.822916,4.90624933 33.2187507,3.927084 32.2395827,2.947916 C31.2604173,1.96875067 30.2812493,1.36458267 29.125,0.916666667 C28.005208,0.489582667 26.7291667,0.1875 24.8541667,0.104166667 C22.9739587,0.0260413333 22.369792,0 17.5885413,0" id="Shape" fill="#FFFFFF" fill-rule="nonzero" mask="url(#mask-w_7x5nyrso-2)"></path>
        <path d="M17.5885413,8.5625 C12.5989587,8.5625 8.5625,12.5989587 8.5625,17.5885413 C8.5625,22.5781253 12.6093747,26.625 17.5989587,26.625 C22.5885413,26.625 26.6354173,22.5833333 26.6354173,17.5885413 C26.625,12.5989587 22.5781253,8.5625 17.5885413,8.5625 M17.5885413,23.4583333 C14.3541667,23.4583333 11.7291667,20.8333333 11.7291667,17.5989587 C11.7291667,14.3593747 14.3541667,11.7343747 17.5885413,11.7343747 C20.8281253,11.7343747 23.4479468,14.3593747 23.4479468,17.5989587 C23.4583333,20.8281253 20.8281253,23.4583333 17.5885413,23.4583333" id="Shape" fill="#FFFFFF" fill-rule="nonzero" mask="url(#mask-w_7x5nyrso-2)"></path>
        <path d="M29.0937507,8.20312533 C29.0937507,9.369792 28.1458333,10.317708 26.9791667,10.317708 C25.817708,10.317708 24.869792,9.369792 24.869792,8.20312533 C24.869792,7.04166667 25.817708,6.09375067 26.9791667,6.09375067 C28.1458333,6.09375067 29.0937507,7.03124933 29.0937507,8.20312533" id="Path" fill="#FFFFFF" fill-rule="nonzero" mask="url(#mask-w_7x5nyrso-2)"></path>
      </g>
    </g>
  </g>
</svg>
