
<svg width="32px" height="32px" viewBox="0 0 32 32" version="1.1" xmlns="http://www.w3.org/2000/svg" xmlns:xlink="http://www.w3.org/1999/xlink">
  <g id="Page-1" stroke="none" stroke-width="1" fill="none" fill-rule="evenodd">
    <g id="linkedin" fill="#fff" fill-rule="nonzero">
      <path d="M29.7142857,0 L2.27857143,0 C1.02142857,0 0,1.03571429 0,2.30714286 L0,29.6928571 C0,30.9642857 1.02142857,32 2.27857143,32 L29.7142857,32 C30.9714286,32 32,30.9642857 32,29.6928571 L32,2.30714286 C32,1.03571429 30.9714286,0 29.7142857,0 Z M9.67142857,27.4285714 L4.92857143,27.4285714 L4.92857143,12.1571429 L9.67857143,12.1571429 L9.67857143,27.4285714 L9.67142857,27.4285714 Z M7.3,10.0714286 C5.77857143,10.0714286 4.55,8.83571429 4.55,7.32142857 C4.55,5.80714286 5.77857143,4.57142857 7.3,4.57142857 C8.81428571,4.57142857 10.05,5.80714286 10.05,7.32142857 C10.05,8.84285714 8.82142857,10.0714286 7.3,10.0714286 L7.3,10.0714286 Z M27.45,27.4285714 L22.7071429,27.4285714 L22.7071429,20 C22.7071429,18.2285714 22.6714286,15.95 20.2428571,15.95 C17.7714286,15.95 17.3928571,17.8785714 17.3928571,19.8714286 L17.3928571,27.4285714 L12.65,27.4285714 L12.65,12.1571429 L17.2,12.1571429 L17.2,14.2428571 L17.2642857,14.2428571 C17.9,13.0428571 19.45,11.7785714 21.7571429,11.7785714 C26.5571429,11.7785714 27.45,14.9428571 27.45,19.0571429 L27.45,27.4285714 L27.45,27.4285714 Z" id="Shape"></path>
    </g>
  </g>
</svg>
