<svg width="36.8497462px" height="32.922384px" viewBox="0 0 36.8497462 32.922384" version="1.1" xmlns="http://www.w3.org/2000/svg" xmlns:xlink="http://www.w3.org/1999/xlink">
  <g id="Page-1" stroke="none" stroke-width="1" fill="none" fill-rule="evenodd">
    <g id="Social-Icons" transform="translate(-2.0938, -98.6766)" fill="#FFFFFF" fill-rule="nonzero">
      <path d="M38.942708,115.385417 C38.8645827,113.145833 36.9895827,111.401041 34.755208,111.473959 C33.7656253,111.510417 32.822916,111.916667 32.1093747,112.598959 C28.9583333,110.442708 25.2604173,109.265625 21.4583333,109.182292 L23.25,100.505208 L29.1718747,101.760417 C29.3385413,103.286459 30.697916,104.390625 32.2187507,104.223959 C33.7395827,104.057292 34.8385413,102.692708 34.6718747,101.161459 C34.5104173,99.6354173 33.1458333,98.5312493 31.630208,98.697916 C30.755208,98.7864587 29.9687507,99.2968747 29.5364587,100.057292 L22.755208,98.697916 C22.2968747,98.5937507 21.8333333,98.880208 21.7291667,99.3541667 C21.7291667,99.3593747 21.7291667,99.3593747 21.7291667,99.3645827 L19.6875,109.015625 C15.8385413,109.078125 12.0885413,110.265625 8.90104133,112.4375 C7.27604133,110.901041 4.71875067,110.979167 3.192708,112.614583 C1.66145867,114.244792 1.73958267,116.817708 3.369792,118.348959 C3.6875,118.651041 4.052084,118.906249 4.45833333,119.083333 C4.427084,119.489583 4.427084,119.901041 4.45833333,120.307292 C4.45833333,126.536459 11.677084,131.598959 20.5833333,131.598959 C29.4895827,131.598959 36.7083333,126.541667 36.7083333,120.307292 C36.7395827,119.901041 36.7395827,119.489583 36.7083333,119.083333 C38.0989587,118.385417 38.9739587,116.947916 38.942708,115.385417 Z M11.2760413,118.171875 C11.2760413,116.635417 12.5208333,115.385417 14.052084,115.385417 C15.5781253,115.385417 16.822916,116.635417 16.822916,118.171875 C16.822916,119.708333 15.5781253,120.958333 14.052084,120.958333 C12.5156253,120.942708 11.2760413,119.708333 11.2760413,118.171875 Z M27.3489587,125.817708 C25.3854173,127.302084 22.9739587,128.0625 20.5156253,127.958333 C18.052084,128.0625 15.6458333,127.302084 13.677084,125.817708 C13.4166667,125.5 13.4635413,125.020833 13.7812493,124.760417 C14.057292,124.531249 14.447916,124.531249 14.7291667,124.760417 C16.3958333,125.979167 18.4218747,126.604167 20.4843747,126.505208 C22.552084,126.619792 24.5833333,126.020833 26.2708333,124.8125 C26.572916,124.515625 27.067708,124.520833 27.3645827,124.828125 C27.6614587,125.130208 27.6510413,125.630208 27.3489587,125.927084 L27.3489587,125.817708 Z M26.8541667,121.052084 C25.3281253,121.052084 24.0833333,119.802084 24.0833333,118.270833 C24.0833333,116.734375 25.3281253,115.484375 26.8541667,115.484375 C28.380208,115.484375 29.625,116.734375 29.625,118.270833 C29.6875,119.802084 28.5,121.093751 26.9739587,121.156249 C26.9218747,121.156249 26.880208,121.156249 26.8333333,121.156249 L26.8541667,121.052084 Z" id="Shape"></path>
    </g>
  </g>
</svg>
