<svg width="37.9895827px" height="31.875px" viewBox="0 0 37.9895827 31.875" version="1.1" xmlns="http://www.w3.org/2000/svg" xmlns:xlink="http://www.w3.org/1999/xlink">
  <defs>
    <polygon id="path-hy-bio37bj-1" points="0 0 37.9895827 0 37.9895827 31.875 0 31.875"></polygon>
  </defs>
  <g id="Page-1" stroke="none" stroke-width="1" fill="none" fill-rule="evenodd">
    <g id="Social-Icons" transform="translate(-4.5521, -152.4792)">
      <g id="Clipped" transform="translate(4.5521, 152.4792)">
        <mask id="mask-hy-bio37bj-2" fill="white">
          <use xlink:href="#path-hy-bio37bj-1"></use>
        </mask>
        <g id="Path"></g>
        <path d="M34.1197907,8.39583333 C34.140624,8.72916667 34.140624,9.067708 34.140624,9.40104133 C34.140624,19.692708 26.3072907,31.557292 11.9843747,31.557292 L11.9843747,31.5520827 C7.755208,31.557292 3.60937467,30.3489587 0.0520826667,28.0625 C0.666666667,28.135416 1.28124933,28.1718747 1.90104133,28.1718747 C5.41145733,28.1770827 8.817708,27 11.572916,24.8333333 C8.23958267,24.7708333 5.317708,22.5989587 4.29687467,19.4270827 C5.46874933,19.6510413 6.66666667,19.6041667 7.81249867,19.2916667 C4.18229067,18.557292 1.567708,15.364584 1.567708,11.6614587 C1.567708,11.625 1.567708,11.5937493 1.567708,11.5625 C2.65104133,12.1614587 3.86458267,12.5 5.10416533,12.5364587 C1.68229067,10.25 0.625,5.69791733 2.692708,2.14062533 C6.645832,7.005208 12.4791653,9.96354133 18.7395827,10.2760413 C18.1145827,7.567708 18.9687493,4.73437467 20.9947907,2.83333333 C24.130208,-0.114584 29.0624987,0.0364586667 32.010416,3.17187467 C33.755208,2.82812533 35.4270827,2.1875 36.953124,1.28125067 C36.375,3.08333333 35.1562493,4.614584 33.5312493,5.58854133 C35.078124,5.40625067 36.5833333,4.994792 38.005208,4.364584 C36.9583333,5.92708267 35.640624,7.29166667 34.1197907,8.39583333 Z" id="Path" fill="#FFFFFF" fill-rule="nonzero" mask="url(#mask-hy-bio37bj-2)"></path>
      </g>
    </g>
  </g>
</svg>
