<?xml version="1.0" encoding="UTF-8"?>
<svg id="Layer_1" data-name="Layer 1" xmlns="http://www.w3.org/2000/svg" viewBox="0 0 738.76 680.4">
  <defs>
    <style>
      .cls-1 {
        fill: #acacdf;
      }

      .cls-1, .cls-2 {
        stroke: #fff;
        stroke-miterlimit: 10;
      }

      .cls-2 {
        fill: #1f1f4f;
      }

      .cls-3 {
        fill-rule: evenodd;
      }

      .cls-3, .cls-4 {
        fill: #fff;
        stroke-width: 0px;
      }
    </style>
  </defs>
  <rect class="cls-1" x="125.27" y="57.23" width="556.25" height="556.25" rx="72.85" ry="72.85" transform="translate(134.96 -115.35) rotate(19.48)"/>
  <rect class="cls-2" x=".5" y="123.64" width="556.25" height="556.25" rx="73.04" ry="73.04"/>
  <g>
    <g id="SvgjsG1964">
      <path class="cls-3" d="m410.56,443.64h-1.42l-11.32-16.98-79.82-119.73,18.94-28.42c1.31-1.95.77-4.58-1.18-5.89-1.95-1.31-4.58-.77-5.89,1.18l-16.98,25.47-11.88-17.82,18.94-28.42c1.3-1.95.77-4.58-1.18-5.89-1.95-1.3-4.58-.77-5.89,1.18l-16.98,25.47-11.88-17.82,18.95-28.42c1.31-1.95.77-4.58-1.18-5.89-1.95-1.3-4.58-.77-5.89,1.18l-16.98,25.47-16.98-25.47c-1.31-1.95-3.94-2.47-5.89-1.18-1.95,1.31-2.48,3.94-1.18,5.89l18.95,28.42-113.79,170.68-11.32,16.98h-1.42c-2.35,0-4.25,1.9-4.25,4.25s1.9,4.25,4.25,4.25h263.26c2.35,0,4.25-1.9,4.25-4.25s-1.9-4.25-4.25-4.25h0Zm-227.88,0h-23.76l8.14-12.21.04-.07,111.82-167.74,11.88,17.83-108.12,162.19h0Zm33.97,0h-23.77l64.57-96.86,38.45-57.67,11.88,17.83-91.14,136.71h0Zm62.28,0h-52.07l47.59-71.39,38.45-57.67,77.86,116.79.04.07,8.14,12.21h-120.01,0Z"/>
    </g>
    <g id="SvgjsG1965">
      <path class="cls-4" d="m116.87,558.24c-.81.81-1.69,1.66-2.65,2.59-.97.92-2.03,1.79-3.19,2.59s-2.41,1.47-3.75,1.99c-1.34.52-2.79.78-4.33.78-4.05,0-7.78-.76-11.18-2.28-3.41-1.52-6.34-3.59-8.8-6.23-2.46-2.63-4.38-5.73-5.76-9.31-1.39-3.57-2.08-7.41-2.08-11.52s.69-7.99,2.08-11.54c1.39-3.56,3.31-6.65,5.76-9.29s5.39-4.7,8.8-6.2c3.41-1.5,7.13-2.26,11.18-2.26,1.64,0,3.13.23,4.49.71,1.36.48,2.59,1.09,3.7,1.83,1.11.74,2.14,1.58,3.08,2.52.94.94,1.83,1.86,2.65,2.75v-20.41c0-.95.29-1.76.87-2.41.58-.65,1.45-.98,2.61-.98h10.05c.39,0,.8.08,1.22.24s.83.4,1.18.69c.36.3.65.65.87,1.07.22.42.34.88.34,1.39v66.76c0,2.3-1.2,3.44-3.61,3.44h-8.76c-.59,0-1.06-.07-1.39-.22s-.6-.37-.83-.65c-.22-.29-.43-.64-.6-1.07s-.4-.93-.67-1.5l-1.3-3.48h.01Zm-25.67-21.39c0,1.97.31,3.81.92,5.51.61,1.71,1.48,3.19,2.61,4.44s2.49,2.24,4.08,2.97c1.59.73,3.36,1.09,5.29,1.09s3.7-.34,5.38-1.03c1.68-.68,3.15-1.63,4.4-2.84s2.26-2.63,3.01-4.27c.76-1.64,1.18-3.4,1.28-5.27v-.62c0-1.91-.36-3.72-1.07-5.45-.71-1.72-1.7-3.25-2.97-4.55-1.27-1.31-2.76-2.35-4.47-3.1-1.71-.76-3.56-1.14-5.56-1.14s-3.7.38-5.29,1.14c-1.59.76-2.96,1.8-4.08,3.1-1.13,1.31-2,2.83-2.61,4.55-.61,1.72-.92,3.54-.92,5.45h0Zm102.21,21.52c-2.62,2.41-5.57,4.3-8.84,5.65-3.28,1.35-6.75,2.03-10.41,2.03-4.08,0-7.93-.74-11.56-2.23-3.63-1.49-6.82-3.55-9.55-6.18-2.74-2.63-4.91-5.73-6.52-9.31-1.61-3.58-2.41-7.46-2.41-11.65,0-2.62.32-5.15.96-7.61.64-2.46,1.55-4.76,2.72-6.9s2.6-4.11,4.29-5.92,3.56-3.34,5.65-4.62c2.08-1.28,4.35-2.28,6.79-2.99,2.44-.71,5.02-1.07,7.72-1.07,2.47,0,4.87.33,7.19.98,2.32.65,4.5,1.58,6.54,2.77,2.04,1.19,3.91,2.62,5.6,4.29,1.69,1.66,3.15,3.49,4.38,5.47,1.22,1.98,2.16,4.09,2.84,6.34.67,2.25,1,4.56,1,6.94,0,1.55-.02,2.82-.07,3.8-.04.98-.28,1.77-.69,2.35-.42.58-1.11.98-2.08,1.2-.97.22-2.39.34-4.27.34h-32.15c.3,1.91.9,3.5,1.81,4.78s1.96,2.3,3.15,3.06,2.46,1.31,3.8,1.63c1.34.33,2.6.49,3.8.49,1.07,0,2.17-.11,3.31-.34,1.13-.22,2.22-.52,3.29-.89,1.06-.37,2.02-.81,2.9-1.3.88-.49,1.58-1,2.12-1.54.48-.39.89-.67,1.22-.87s.7-.29,1.09-.29.78.13,1.18.4c.4.27.86.65,1.36,1.16l4.73,5.36c.33.39.54.73.62,1.05s.13.63.13.96c0,.59-.16,1.11-.49,1.54-.33.43-.71.81-1.16,1.14h0Zm-21.48-37.2c-1.16,0-2.29.23-3.37.69-1.09.46-2.1,1.08-3.06,1.86-.95.78-1.81,1.65-2.57,2.63-.76.98-1.38,1.98-1.86,2.99h22.82c-.62-1.16-1.31-2.23-2.03-3.21s-1.56-1.85-2.5-2.59-2.01-1.33-3.21-1.74-2.61-.62-4.22-.62h0Zm38.36-12.19c.39-.33.79-.54,1.2-.62.42-.09.82-.13,1.2-.13h6.75c.56,0,1.03.09,1.41.27s.67.43.92.73c.23.32.44.67.6,1.07s.32.84.47,1.32l1.88,5.4c.84-1.07,1.67-2.16,2.52-3.29.85-1.11,1.86-2.13,3.01-3.04,1.16-.91,2.54-1.66,4.15-2.26,1.61-.59,3.57-.89,5.9-.89,4.08,0,7.84.76,11.28,2.26s6.4,3.57,8.89,6.2c2.49,2.63,4.43,5.73,5.83,9.29,1.4,3.56,2.1,7.41,2.1,11.54s-.7,7.95-2.1,11.52c-1.4,3.57-3.34,6.67-5.83,9.31-2.49,2.63-5.45,4.71-8.89,6.23-3.44,1.52-7.19,2.28-11.28,2.28-1.94,0-3.6-.23-5-.69s-2.64-1.06-3.72-1.81c-1.09-.74-2.05-1.56-2.88-2.46-.84-.89-1.65-1.79-2.46-2.68v20.81c0,.89-.27,1.65-.81,2.28-.54.62-1.37.94-2.5.94h-10.22c-.36,0-.74-.07-1.16-.22-.42-.15-.81-.36-1.16-.62-.36-.27-.65-.6-.89-1s-.36-.86-.36-1.36v-67.83c0-.59.11-1.09.34-1.47.22-.39.5-.74.83-1.07h0Zm41.71,27.86c0-1.91-.32-3.71-.94-5.43s-1.5-3.2-2.63-4.49-2.49-2.3-4.06-3.04-3.32-1.11-5.22-1.11-3.65.35-5.34,1.05c-1.68.7-3.15,1.65-4.42,2.86s-2.3,2.63-3.08,4.27c-.79,1.64-1.22,3.38-1.32,5.22v.67c0,1.97.37,3.81,1.11,5.54.74,1.72,1.76,3.22,3.04,4.49,1.28,1.27,2.79,2.27,4.51,3.01s3.56,1.11,5.49,1.11,3.64-.37,5.22-1.11c1.58-.74,2.93-1.75,4.06-3.01,1.13-1.27,2.01-2.76,2.63-4.49s.94-3.57.94-5.54h0Zm25.32-41.84c0-.95.23-1.76.71-2.41s1.3-.98,2.46-.98h10.94c.3,0,.61.08.94.24s.63.4.92.69c.29.3.52.65.71,1.07.19.42.29.88.29,1.39v66.71c0,1.13-.32,1.99-.96,2.57s-1.47.87-2.48.87h-10.36c-1.16,0-1.98-.29-2.46-.87s-.71-1.44-.71-2.57v-66.71h0Zm25.94,41.84c0-2.74.35-5.37,1.05-7.9.7-2.53,1.68-4.88,2.95-7.03,1.27-2.16,2.79-4.12,4.55-5.9,1.77-1.77,3.75-3.29,5.92-4.53,2.17-1.25,4.52-2.21,7.03-2.9,2.52-.68,5.14-1.03,7.88-1.03,4.05,0,7.85.76,11.41,2.26s6.65,3.57,9.29,6.2c2.63,2.63,4.71,5.73,6.25,9.29,1.54,3.56,2.3,7.41,2.3,11.54,0,2.74-.35,5.37-1.05,7.88-.7,2.52-1.68,4.86-2.95,7.03-1.27,2.17-2.79,4.14-4.55,5.92-1.77,1.77-3.74,3.29-5.92,4.55-2.17,1.27-4.5,2.24-6.99,2.93-2.49.68-5.08,1.03-7.79,1.03s-5.37-.34-7.88-1.03c-2.52-.68-4.86-1.66-7.03-2.93s-4.14-2.79-5.92-4.55c-1.77-1.77-3.29-3.74-4.55-5.92-1.27-2.17-2.25-4.52-2.95-7.03-.7-2.52-1.05-5.14-1.05-7.88h0Zm16.3,0c0,1.97.31,3.81.92,5.51s1.47,3.19,2.59,4.44,2.47,2.24,4.06,2.97c1.59.73,3.39,1.09,5.38,1.09s3.68-.37,5.25-1.09c1.56-.73,2.89-1.72,3.97-2.97s1.92-2.73,2.5-4.44c.58-1.71.87-3.55.87-5.51s-.29-3.72-.87-5.45c-.58-1.72-1.42-3.25-2.5-4.55-1.09-1.31-2.41-2.35-3.97-3.1-1.56-.76-3.31-1.14-5.25-1.14s-3.79.38-5.38,1.14c-1.59.76-2.95,1.8-4.06,3.1s-1.98,2.83-2.59,4.55-.92,3.54-.92,5.45h0Zm51.93,15.45c0-.59.16-1.07.49-1.43s.82-.54,1.47-.54h11.79c.51,0,.98.18,1.41.54.43.36.65.84.65,1.43v10.81c0,.54-.17,1.01-.51,1.43s-.86.62-1.54.62h-11.79c-1.31,0-1.97-.68-1.97-2.05v-10.81h0Zm26.52-40.37c0-.95.27-1.77.81-2.46s1.37-1.03,2.5-1.03h10.22c.36,0,.74.08,1.16.24s.81.4,1.16.71.66.67.92,1.09.38.89.38,1.43v49.79c0,1.13-.32,1.99-.94,2.57s-1.52.87-2.68.87h-10.22c-2.2,0-3.31-1.14-3.31-3.44v-49.79h0Zm0-22.59c0-1.25.27-2.13.81-2.65s1.37-.78,2.5-.78h10.36c1.04,0,1.88.26,2.52.78.64.52.96,1.41.96,2.65v8.7c0,.36-.08.74-.24,1.16s-.4.82-.69,1.2c-.3.39-.66.7-1.09.96-.43.26-.92.38-1.45.38h-10.36c-2.2,0-3.31-1.23-3.31-3.7v-8.7h0Zm26.12,47.51c0-2.74.35-5.37,1.05-7.9s1.68-4.88,2.95-7.03c1.27-2.16,2.79-4.12,4.55-5.9,1.77-1.77,3.74-3.29,5.92-4.53,2.17-1.25,4.52-2.21,7.03-2.9,2.52-.68,5.14-1.03,7.88-1.03,4.05,0,7.85.76,11.41,2.26s6.65,3.57,9.29,6.2c2.63,2.63,4.71,5.73,6.25,9.29,1.53,3.56,2.3,7.41,2.3,11.54,0,2.74-.35,5.37-1.05,7.88-.7,2.52-1.68,4.86-2.95,7.03-1.27,2.17-2.79,4.14-4.55,5.92-1.77,1.77-3.74,3.29-5.92,4.55-2.17,1.27-4.5,2.24-6.99,2.93-2.49.68-5.08,1.03-7.79,1.03s-5.37-.34-7.88-1.03c-2.52-.68-4.86-1.66-7.03-2.93s-4.14-2.79-5.92-4.55c-1.77-1.77-3.29-3.74-4.55-5.92-1.27-2.17-2.24-4.52-2.95-7.03-.7-2.52-1.05-5.14-1.05-7.88h0Zm16.3,0c0,1.97.31,3.81.92,5.51.61,1.71,1.47,3.19,2.59,4.44s2.47,2.24,4.06,2.97c1.59.73,3.39,1.09,5.38,1.09s3.68-.37,5.25-1.09c1.56-.73,2.89-1.72,3.97-2.97,1.09-1.25,1.92-2.73,2.5-4.44.58-1.72.87-3.55.87-5.51s-.29-3.72-.87-5.45c-.58-1.72-1.42-3.25-2.5-4.55-1.09-1.31-2.41-2.35-3.97-3.1-1.56-.76-3.31-1.14-5.25-1.14s-3.79.38-5.38,1.14c-1.59.76-2.95,1.8-4.06,3.1-1.11,1.31-1.98,2.83-2.59,4.55-.61,1.72-.92,3.54-.92,5.45h0Z"/>
    </g>
  </g>
</svg>