<svg width="105" height="36" viewBox="0 0 105 36" fill="none" xmlns="http://www.w3.org/2000/svg">
<g clip-path="url(#clip0_15_1524)">
<path d="M16.8939 0.612793C14.212 0.612793 11.5355 1.52118 9.3618 3.17575C7.77753 4.37613 6.81506 5.78197 6.5393 6.20913C6.30139 6.35512 5.7769 6.69036 5.29567 7.13915C5.15509 7.27433 4.94421 7.52846 4.74955 8.00428C4.57653 8.42604 4.44676 8.97756 4.34943 9.63723C4.24129 10.3942 4.23047 11.0431 4.24129 11.454C4.18181 11.4702 4.11692 11.4919 4.05204 11.5189C3.74924 11.6324 3.414 11.8163 3.15987 12.0163C2.8787 12.238 2.54346 12.53 2.21903 13.0599C2.05682 13.3249 1.92164 13.6168 1.84595 13.7899C1.80269 13.8223 1.74862 13.8656 1.69455 13.9142C1.37553 14.1684 1.15924 14.3738 1.02407 14.536C0.764527 14.8659 0.602314 15.2065 0.494173 15.6337V15.6499C0.440102 15.8283 0.391438 16.0338 0.267075 17.8127C0.20219 18.9266 0.191375 20.4027 0.213004 20.7434C0.240039 21.1597 0.364402 21.5869 0.559058 21.9384C0.650978 22.1114 0.856448 22.3871 1.10517 22.6305C1.21872 22.744 1.32686 22.8467 1.40256 22.9224C1.45123 23.0738 1.53233 23.3172 1.64048 23.5605C1.79187 23.9119 1.98653 24.2256 2.23526 24.5175C2.84626 25.2421 3.61406 25.5449 4.0953 25.6747C4.19262 26.3397 4.50083 27.5888 5.49573 28.4215C6.42035 29.1947 9.19959 31.5035 11.0326 33.0283C11.6328 33.5257 12.1194 33.9313 12.3681 34.1367C12.9034 34.5855 13.5577 34.964 14.1633 35.1803C14.7689 35.3966 15.6557 35.4723 16.3424 35.4939V35.5047H16.8723C16.8723 35.5047 16.8885 35.5047 16.8939 35.5047H17.4508V35.4939C18.1375 35.4723 19.0243 35.3966 19.6299 35.1803C20.2355 34.964 20.8897 34.5855 21.425 34.1367C21.6792 33.9259 22.1604 33.5257 22.7606 33.0283C24.599 31.5035 27.3782 29.1947 28.3028 28.416C29.2978 27.5834 29.606 26.3343 29.7033 25.6692C30.1899 25.5395 30.9577 25.2367 31.5633 24.5121C31.812 24.2201 32.0067 23.9065 32.1581 23.5551C32.2662 23.3118 32.3474 23.0684 32.396 22.917C32.4717 22.8413 32.5799 22.7386 32.6934 22.6251C32.9367 22.3871 33.1422 22.106 33.2395 21.9329C33.4342 21.5815 33.5531 21.1543 33.5856 20.738C33.6072 20.3919 33.5964 18.9212 33.5207 17.8127C33.3963 16.0338 33.3477 15.8283 33.299 15.6499V15.6337C33.1855 15.2011 33.0232 14.8659 32.7637 14.536C32.6339 14.3684 32.4122 14.163 32.0932 13.9088C32.0337 13.8602 31.9851 13.8223 31.9418 13.7845C31.8661 13.6168 31.7309 13.3195 31.5687 13.0545C31.2443 12.5246 30.9145 12.2326 30.6279 12.0109C30.3738 11.8109 30.0385 11.627 29.7357 11.5135C29.6708 11.4865 29.606 11.4648 29.5465 11.4486C29.5573 11.0323 29.5465 10.3834 29.4383 9.63182C29.3464 8.97215 29.2112 8.42604 29.0382 7.99888C28.8436 7.52305 28.6381 7.26351 28.4921 7.13374C28.0109 6.68495 27.4864 6.34972 27.2485 6.20372C26.9727 5.77656 26.0102 4.37072 24.426 3.17035C22.2523 1.52118 19.5758 0.612793 16.8939 0.612793Z" fill="white"/>
<path d="M49.4446 16.4394C49.4446 15.7365 49.0769 15.4283 47.79 15.4283C46.5031 15.4283 45.3676 16.1042 45.2162 16.2231L43.6536 26.6156H37.8031L39.4901 15.5797L38.1708 15.3959L38.479 11.2919H45.2487L45.492 12.1192H45.6434C45.6434 12.1192 47.1466 10.6484 50.5476 10.6484C53.9487 10.6484 55.4789 11.9029 55.4789 14.6929C55.4789 15.1201 55.4464 15.5797 55.3545 16.0718L54.4678 21.8682C54.5272 22.2683 54.7111 22.3872 54.803 22.3872C55.0788 22.3872 56.0304 22.3548 56.0304 22.3548L55.7871 26.2155C55.7871 26.2155 53.2458 26.9184 50.7909 26.9184C48.9525 26.9184 48.1577 26.1235 48.1577 24.988C48.1577 24.3446 49.4446 17.2883 49.4446 16.434V16.4394Z" fill="#101828"/>
<path d="M58.6636 11.292H66.2011L64.5789 21.7493C64.6114 22.2684 64.8223 22.3927 64.9142 22.3927C65.1899 22.3927 66.1416 22.3603 66.1416 22.3603L65.8983 26.221C65.8983 26.221 63.3569 26.9239 60.9021 26.9239C59.0637 26.9239 58.2959 26.1561 58.2959 24.9936C58.2959 24.8422 58.2959 24.6854 58.3283 24.534L59.6747 15.5798L58.3554 15.396L58.6636 11.292Z" fill="#101828"/>
<path d="M80.173 16.4394C80.173 15.7365 79.8053 15.4283 78.5184 15.4283C77.2315 15.4283 76.096 16.1042 75.9446 16.2231L74.382 26.6156H68.5315L70.2185 15.5797L68.8992 15.3959L69.2074 11.2919H75.9771L76.2204 12.1192H76.3718C76.3718 12.1192 77.8749 10.6484 81.276 10.6484C84.6771 10.6484 86.2073 11.9029 86.2073 14.6929C86.2073 15.1201 86.1748 15.5797 86.0829 16.0718L85.1962 21.8682C85.2556 22.2683 85.4395 22.3872 85.5314 22.3872C85.8071 22.3872 86.7588 22.3548 86.7588 22.3548L86.5155 26.2155C86.5155 26.2155 83.9741 26.9184 81.5193 26.9184C79.6809 26.9184 78.8861 26.1235 78.8861 24.988C78.8861 24.3446 80.173 17.2883 80.173 16.434V16.4394Z" fill="#101828"/>
<path d="M103.067 23.6146C103.067 23.6146 101.353 27.2915 96.0213 27.2915C91.5766 27.2915 88.2999 24.9934 88.2999 20.3974C88.2999 14.5091 92.7716 10.6484 97.8597 10.6484C101.412 10.6484 104.202 12.5788 104.202 15.6446C104.202 19.3539 101.261 20.83 94.0314 20.9219C94.2477 22.544 95.5617 23.0956 96.9134 23.0956C99.0871 23.0956 100.223 21.5654 100.223 21.5654L103.072 23.62L103.067 23.6146ZM94.3018 17.4506C98.2544 17.4181 99.0492 16.8666 99.0492 15.8555C99.0492 15.2445 98.5572 14.6605 97.2433 14.6605C96.0159 14.6605 94.8533 15.212 94.3018 17.4506Z" fill="#101828"/>
<path d="M15.8881 19.6834C16.0827 19.2184 16.272 18.4236 15.7042 18.1316C14.9851 17.7585 13.8874 17.6558 13.125 17.6828C11.7138 17.7369 10.6324 18.0667 10.4485 18.1694C10.2431 18.2884 10.016 18.6398 11.0649 18.6236C12.5951 18.5966 12.4437 19.0454 12.5897 19.5374C12.8222 20.316 13.4332 20.462 14.6228 20.462C15.2392 20.462 15.688 20.1538 15.8881 19.6834Z" fill="#101828"/>
<path d="M17.8995 19.6834C17.7049 19.2184 17.5156 18.4236 18.0834 18.1316C18.8025 17.7585 19.9002 17.6558 20.6626 17.6828C22.0738 17.7369 23.1552 18.0667 23.3391 18.1694C23.5446 18.2884 23.7717 18.6398 22.7227 18.6236C21.1925 18.5966 21.3439 19.0454 21.1979 19.5374C20.9654 20.316 20.3544 20.462 19.1648 20.462C18.5484 20.462 18.0996 20.1538 17.8995 19.6834Z" fill="#101828"/>
<path d="M14.877 24.128C14.531 24.3605 14.4337 24.4254 14.6662 24.7228C14.8662 24.9769 15.2015 24.9012 15.461 24.9823C15.7205 25.058 16.3424 25.6528 16.5478 25.8096C16.683 25.9177 16.7966 25.9448 16.8939 25.9448C16.8939 25.9448 16.8939 25.9448 16.8993 25.9448H16.9047C17.002 25.9448 17.1102 25.9177 17.2507 25.8096C17.4508 25.6528 18.078 25.058 18.3376 24.9823C18.5971 24.9066 18.9324 24.9823 19.1324 24.7228C19.3649 24.4254 19.2676 24.3659 18.9215 24.128C18.5755 23.8955 18.2565 23.9712 18.0726 24.101C17.7103 24.3551 17.4724 24.4741 17.3589 24.5389C17.2453 24.6038 17.0723 24.6633 16.9047 24.6633C16.7425 24.6633 16.5695 24.6038 16.4505 24.5389C16.3369 24.4741 16.099 24.3551 15.7368 24.101C15.5529 23.9766 15.2339 23.8955 14.8878 24.128H14.877Z" fill="#101828"/>
<path d="M31.866 18.3859C31.866 18.3859 31.866 18.3751 31.866 18.3697C31.866 18.3697 31.866 18.3643 31.866 18.3589C31.812 17.245 31.7038 16.2609 31.7038 16.2609C31.7038 16.2609 31.6606 15.8446 31.4551 15.5958C31.2496 15.3471 30.763 15.0551 30.5737 14.8118C30.5629 14.7956 30.5521 14.7794 30.5413 14.7631C30.736 15.7797 30.8819 17.072 30.9468 18.44C30.9739 19.0239 30.9847 19.5971 30.9847 20.1432C30.9739 20.2892 30.9576 20.4352 30.9252 20.5055C30.8387 20.6947 30.6873 20.7704 30.5575 20.8894C30.4494 20.9867 30.3466 21.1003 30.2493 21.23C30.2872 20.419 30.2872 19.4835 30.2385 18.4778C30.1033 15.6607 29.5356 13.5411 29.1463 13.1789C29.0381 13.0761 28.8759 13.0221 28.7678 13.0004C28.4866 12.9464 28.1406 12.9193 27.6701 12.9031C28.1243 11.1404 27.6593 8.66395 27.3079 8.33953C26.9402 7.99888 26.5076 7.7123 26.0426 7.46898C24.1663 4.37613 20.7707 2.30521 16.8884 2.2998C13.0061 2.30521 9.60504 4.37613 7.73419 7.46898C7.26918 7.7123 6.84202 8.00429 6.46893 8.33953C6.11747 8.65854 5.65246 11.1404 6.10666 12.9031C5.63624 12.9193 5.29018 12.9464 5.00902 13.0004C4.90628 13.0275 4.74407 13.0761 4.63052 13.1789C4.24662 13.5411 3.67887 15.6607 3.53829 18.4778C3.48962 19.4835 3.48962 20.419 3.52747 21.23C3.43015 21.1003 3.322 20.9867 3.21927 20.8894C3.0895 20.7704 2.94351 20.6947 2.85159 20.5055C2.81914 20.4298 2.79752 20.2892 2.79211 20.1432C2.79211 19.5971 2.80292 19.0293 2.82996 18.44C2.89484 17.072 3.04083 15.7851 3.23549 14.7631C3.22468 14.7794 3.21386 14.7956 3.20305 14.8118C3.0138 15.0551 2.52716 15.3471 2.32169 15.5958C2.11622 15.8446 2.07297 16.2609 2.07297 16.2609C2.07297 16.2609 1.96482 17.245 1.91075 18.3589C1.91075 18.3589 1.91075 18.3643 1.91075 18.3697C1.91075 18.3697 1.91075 18.3805 1.91075 18.3859C1.85668 19.4998 1.86209 20.4893 1.86209 20.4893C1.86209 20.4893 1.86209 20.911 2.04052 21.176C2.21896 21.4409 2.67315 21.7816 2.84077 22.0411C3.00839 22.3006 3.07328 23.0468 3.61399 23.5551C4.0844 23.9931 4.50075 24.1336 5.6849 24.1661V24.5824C5.69031 25.1123 5.71194 26.3992 6.54463 27.1292C6.73928 27.3022 11.8652 31.5576 13.4387 32.8607C13.5955 32.9959 14.0605 33.3527 14.6661 33.5852C15.1419 33.7691 16.0503 33.8231 16.883 33.8286C17.7157 33.8231 18.6241 33.7691 19.0999 33.5852C19.7055 33.3527 20.1651 32.9959 20.3273 32.8607C21.8954 31.5576 27.0267 27.2968 27.2213 27.1292C28.054 26.3938 28.0757 25.1123 28.0811 24.5824V24.1661C29.2652 24.139 29.6816 23.9985 30.152 23.5551C30.6927 23.0468 30.763 22.3006 30.9252 22.0411C31.0874 21.7816 31.547 21.4409 31.7255 21.176C31.9039 20.911 31.9039 20.4893 31.9039 20.4893C31.9039 20.4893 31.9147 19.4998 31.8552 18.3859H31.866ZM7.31244 8.92349C8.80479 6.9445 15.2663 6.4903 15.5528 7.7826C15.7637 8.72343 15.077 13.579 9.84296 13.6439C6.32835 13.6871 6.71225 9.72374 7.31244 8.92349ZM25.1126 21.8356C24.9774 22.0141 24.3231 22.6683 24.2366 22.9224C24.1555 23.1766 24.1717 23.3875 24.1717 23.3875L24.1609 26.4425C24.1609 26.4425 24.2042 27.4049 23.8798 27.6807C23.2634 28.2052 19.0512 31.6711 19.0512 31.6711C19.0512 31.6711 18.7701 31.9198 18.4186 32.0496C18.0834 32.1686 16.9046 32.1632 16.8938 32.1632C16.8938 32.1632 16.8938 32.1632 16.8884 32.1632H16.883C16.8776 32.1632 15.6934 32.1686 15.3582 32.0496C15.0067 31.9253 14.7256 31.6711 14.7256 31.6711C14.7256 31.6711 10.5188 28.2106 9.89703 27.6807C9.5726 27.4049 9.61586 26.4425 9.61586 26.4425L9.60504 23.3875C9.60504 23.3875 9.62126 23.1766 9.54016 22.9224C9.45905 22.6683 8.79939 22.0141 8.66421 21.8356C8.46955 21.5815 8.39386 21.1976 8.39386 20.8732C8.39386 20.6569 8.52363 17.0125 8.52363 17.0125C8.52363 17.0125 8.6588 16.7584 9.0373 16.5313C10.5351 15.6283 16.8776 15.6229 16.8776 15.6229H16.8938C16.8938 15.6229 23.2363 15.6283 24.7341 16.5313C25.1126 16.7584 25.2478 17.0125 25.2478 17.0125C25.2478 17.0125 25.3775 20.6569 25.3775 20.8732C25.3775 21.1976 25.3018 21.5815 25.1072 21.8356H25.1126ZM23.9447 13.6439C18.7106 13.579 18.0239 8.72343 18.2348 7.7826C18.5213 6.4903 24.9828 6.9445 26.4752 8.92349C27.0754 9.72374 27.4593 13.6871 23.9501 13.6439H23.9447Z" fill="#101828"/>
<path d="M19.8461 26.4155C19.646 26.4155 19.1864 26.7616 18.8295 26.8805C18.6619 26.94 18.4889 26.9833 18.3159 26.9833C18.2347 26.9833 16.9749 26.9833 16.8938 26.9833C16.8127 26.9833 15.5528 26.9833 15.4717 26.9833C15.2933 26.9833 15.1257 26.9346 14.9526 26.8805C14.6012 26.7616 14.1416 26.4155 13.9361 26.4155C13.7144 26.4155 13.1413 26.9076 13.2494 27.086C13.3684 27.2807 13.7036 26.9616 14.0983 27.1617C14.2497 27.2374 14.7201 27.5943 14.8175 27.67C14.9148 27.7457 15.1311 27.8754 15.3474 27.9241C15.569 27.9728 16.764 27.9782 16.883 27.9782C16.9965 27.9782 18.1969 27.9782 18.4186 27.9241C18.6349 27.8754 18.8566 27.7403 18.9485 27.67C19.0458 27.5943 19.5162 27.2428 19.6676 27.1617C20.0623 26.9616 20.3976 27.2807 20.5165 27.086C20.6247 26.9076 20.0515 26.4209 19.8298 26.4155H19.8461Z" fill="#101828"/>
</g>
<defs>
<clipPath id="clip0_15_1524">
<rect width="104" height="34.8974" fill="white" transform="translate(0.202148 0.612793)"/>
</clipPath>
</defs>
</svg>
