<?xml version="1.0" encoding="UTF-8"?>
<svg id="Layer_1" data-name="Layer 1" xmlns="http://www.w3.org/2000/svg" viewBox="0 0 626.82 626.82">
  <defs>
    <style>
      .cls-1 {
        letter-spacing: -.02em;
      }

      .cls-2 {
        font-size: 119.81px;
      }

      .cls-2, .cls-3, .cls-4 {
        font-family: Epilogue-Black, 'Epilogue Black';
        font-weight: 800;
      }

      .cls-2, .cls-3, .cls-4, .cls-5, .cls-6, .cls-7 {
        fill: #8bc63f;
      }

      .cls-8 {
        letter-spacing: 0em;
      }

      .cls-3 {
        font-size: 50.38px;
      }

      .cls-4 {
        font-size: 90.03px;
      }

      .cls-5 {
        font-family: Epilogue-Medium, 'Epilogue Medium';
        font-weight: 500;
      }

      .cls-5, .cls-7 {
        font-size: 49.04px;
      }

      .cls-6 {
        stroke-width: 0px;
      }

      .cls-9 {
        letter-spacing: 0em;
      }

      .cls-7 {
        font-family: Epilogue-SemiBold, 'Epilogue SemiBold';
        font-weight: 600;
      }

      .cls-10 {
        letter-spacing: 0em;
      }
    </style>
  </defs>
  <g>
    <path class="cls-6" d="m313.41,0C140.59,0,0,140.59,0,313.41s140.59,313.41,313.41,313.41,313.41-140.59,313.41-313.41S486.22,0,313.41,0Zm0,621.98C143.26,621.98,4.84,483.55,4.84,313.41S143.26,4.84,313.41,4.84s308.57,138.42,308.57,308.57-138.42,308.57-308.57,308.57Z"/>
    <path class="cls-6" d="m313.41,76.54c-130.61,0-236.87,106.26-236.87,236.87s106.26,236.87,236.87,236.87,236.87-106.26,236.87-236.87-106.26-236.87-236.87-236.87Zm0,468.91c-127.94,0-232.03-104.09-232.03-232.03s104.09-232.03,232.03-232.03,232.03,104.09,232.03,232.03-104.09,232.03-232.03,232.03Z"/>
    <path class="cls-6" d="m313.41,155.14c-87.27,0-158.27,71-158.27,158.27s71,158.27,158.27,158.27,158.27-71,158.27-158.27-71-158.27-158.27-158.27Zm0,311.7c-84.6,0-153.43-68.83-153.43-153.43s68.83-153.43,153.43-153.43,153.43,68.83,153.43,153.43-68.83,153.43-153.43,153.43Z"/>
    <path class="cls-6" d="m70.63,265.83c-1.32-.25-2.58.62-2.82,1.94-.58,3.13-1.06,6.28-1.52,9.44l-8.15-1.49c-1.33-.24-2.58.63-2.82,1.94-.24,1.32.63,2.58,1.94,2.82l8.39,1.54c-.32,2.51-.63,5.03-.87,7.55h-5.18c-1.34,0-2.42,1.08-2.42,2.42s1.08,2.42,2.42,2.42h4.81c-.41,5.39-.65,10.8-.71,16.21h-8.76c.2-.86.31-1.75.31-2.65,0-6.62-5.38-12-12-12.01-2.27-2.7-5.6-4.27-9.16-4.27-5.97,0-10.93,4.37-11.84,10.3-4.9,1.55-8.39,6.15-8.39,11.41s3.47,9.82,8.34,11.39c.82,5.82,5.84,10.32,11.89,10.32,3.56,0,6.89-1.57,9.16-4.27,6.62,0,12-5.39,12-12.01,0-.9-.12-1.78-.31-2.65h8.76c.06,5.41.31,10.82.71,16.21h-4.8c-1.34,0-2.42,1.08-2.42,2.42s1.08,2.42,2.42,2.42h5.18c.24,2.53.55,5.04.86,7.55l-8.39,1.53c-1.32.24-2.19,1.5-1.95,2.81.21,1.17,1.23,1.99,2.38,1.99.14,0,.29-.01.44-.04l8.16-1.49c.46,3.13.93,6.25,1.51,9.34.21,1.17,1.23,1.98,2.38,1.98.15,0,.29-.01.44-.04,1.32-.24,2.18-1.5,1.94-2.82-2.71-14.63-4.08-29.65-4.08-44.66s1.38-30.1,4.1-44.76c.24-1.31-.62-2.58-1.94-2.82Zm-20.22,53.01c0,3.95-3.22,7.17-7.17,7.17-.17,0-.33-.03-.5-.05-.01,0-.33-.04-.34-.04-.91-.11-1.81.31-2.31,1.09-1.33,2.05-3.58,3.28-6,3.28-3.95,0-7.17-3.22-7.18-6.94.01-.1.04-.33.04-.43.02-1.22-.87-2.27-2.08-2.44-3.51-.5-6.16-3.53-6.16-7.06s2.65-6.56,6.16-7.06c1.21-.17,2.08-1.43,2.06-2.65,0-3.95,3.22-7.17,7.17-7.17,2.43,0,4.67,1.23,6,3.28.5.77,1.41,1.21,2.31,1.09.02,0,.33-.04.34-.04.16-.02.33-.05.5-.05,3.95,0,7.17,3.22,7.17,7.17,0,.92-.24,1.8-.58,2.65h-9.49c-1.54,0-2.79,1.25-2.79,2.79s1.25,2.79,2.79,2.79h9.49c.34.84.58,1.72.58,2.65Z"/>
    <path class="cls-6" d="m604.62,302.02c-.82-5.83-5.84-10.32-11.89-10.32-3.57,0-6.89,1.57-9.16,4.27-6.62,0-12,5.39-12,12.01,0,.9.12,1.78.31,2.65h-8.76c-.06-5.41-.31-10.82-.71-16.21h4.81c1.34,0,2.42-1.08,2.42-2.42s-1.08-2.42-2.42-2.42h-5.18c-.24-2.53-.55-5.04-.87-7.55l8.39-1.54c1.31-.24,2.18-1.5,1.94-2.82-.24-1.32-1.5-2.18-2.82-1.94l-8.16,1.49c-.46-3.16-.94-6.31-1.52-9.44-.24-1.31-1.5-2.18-2.82-1.94-1.31.24-2.18,1.51-1.94,2.82,2.72,14.67,4.1,29.72,4.1,44.76s-1.37,30.02-4.08,44.66c-.24,1.31.63,2.58,1.94,2.82.15.03.3.04.44.04,1.14,0,2.16-.81,2.38-1.98.57-3.09,1.05-6.22,1.51-9.34l8.16,1.49c.15.03.29.04.44.04,1.15,0,2.16-.82,2.38-1.99.24-1.31-.63-2.57-1.95-2.81l-8.39-1.53c.32-2.51.62-5.03.86-7.55h5.18c1.34,0,2.42-1.08,2.42-2.42s-1.08-2.42-2.42-2.42h-4.81c.41-5.39.65-10.8.71-16.21h8.76c-.2.86-.31,1.75-.31,2.65,0,6.62,5.38,12,12,12.01,2.27,2.7,5.6,4.27,9.16,4.27,6.05,0,11.07-4.5,11.89-10.32,4.87-1.57,8.34-6.16,8.34-11.39s-3.47-9.82-8.34-11.39Zm-2.67,18.44c-1.23.17-2.1,1.41-2.05,2.65,0,3.95-3.22,7.17-7.17,7.17-2.43,0-4.67-1.23-6-3.28-.45-.69-1.22-1.1-2.03-1.1-.09,0-.19,0-.28.02-.02,0-.33.04-.34.04-.16.02-.33.05-.5.05-3.95,0-7.17-3.22-7.17-7.17,0-.92.24-1.8.58-2.65h9.49c1.54,0,2.79-1.25,2.79-2.79s-1.25-2.79-2.79-2.79h-9.49c-.34-.84-.58-1.72-.58-2.65,0-3.95,3.22-7.17,7.17-7.17.17,0,.33.03.5.05.01,0,.32.04.34.04.92.11,1.81-.31,2.31-1.09,1.33-2.05,3.58-3.28,6.01-3.28,3.95,0,7.17,3.22,7.18,6.94-.01.09-.04.3-.04.39-.05,1.24.85,2.31,2.08,2.49,3.51.5,6.17,3.53,6.17,7.06s-2.65,6.56-6.17,7.06Z"/>
    <path class="cls-6" d="m313.41,86.49c-125.12,0-226.92,101.79-226.92,226.92s101.8,226.92,226.92,226.92,226.92-101.79,226.92-226.92-101.79-226.92-226.92-226.92Zm176.53,147.06c3.79-1.57,8.13.23,9.7,4.02,1.57,3.79-.23,8.13-4.02,9.69-3.79,1.57-8.13-.23-9.69-4.02-1.57-3.79.23-8.13,4.02-9.7Zm-44-61.48c2.9-2.9,7.6-2.9,10.49,0,2.9,2.9,2.9,7.6,0,10.49-2.9,2.9-7.6,2.9-10.49,0-2.9-2.9-2.9-7.6,0-10.49Zm-64.17-39.96c1.57-3.79,5.91-5.58,9.69-4.02,3.79,1.57,5.58,5.91,4.02,9.7-1.57,3.79-5.91,5.58-9.69,4.02-3.79-1.57-5.58-5.91-4.02-9.69Zm-67.16-19.78c4.1,0,7.42,3.32,7.42,7.42s-3.32,7.42-7.42,7.42-7.42-3.32-7.42-7.42,3.32-7.42,7.42-7.42Zm-77.04,14.85c3.79-1.57,8.13.23,9.69,4.02,1.57,3.79-.23,8.13-4.02,9.69-3.79,1.57-8.13-.23-9.69-4.02-1.57-3.79.23-8.13,4.02-9.7Zm-65.49,43.2c2.9-2.9,7.6-2.9,10.49,0,2.9,2.9,2.9,7.6,0,10.49-2.9,2.9-7.6,2.9-10.49,0-2.9-2.9-2.9-7.6,0-10.49Zm-52.32,149.25c-4.1,0-7.42-3.32-7.42-7.42s3.32-7.42,7.42-7.42,7.42,3.32,7.42,7.42-3.32,7.42-7.42,7.42Zm17.12,73.63c-3.79,1.57-8.13-.23-9.69-4.02-1.57-3.79.23-8.13,4.02-9.69,3.79-1.57,8.13.23,9.69,4.02,1.57,3.79-.23,8.13-4.02,9.69Zm4.93-152.23c-1.57,3.79-5.91,5.58-9.69,4.02-3.79-1.57-5.58-5.91-4.02-9.69,1.57-3.79,5.91-5.58,9.69-4.02s5.58,5.91,4.02,9.69Zm39.07,213.71c-2.9,2.9-7.6,2.9-10.49,0-2.9-2.9-2.9-7.6,0-10.49,2.9-2.9,7.6-2.9,10.49,0,2.9,2.9,2.9,7.6,0,10.49Zm64.17,39.96c-1.57,3.79-5.91,5.58-9.69,4.02-3.79-1.57-5.58-5.91-4.02-9.7,1.57-3.79,5.91-5.58,9.7-4.02,3.79,1.57,5.58,5.91,4.02,9.69Zm67.16,19.78c-4.1,0-7.42-3.32-7.42-7.42s3.32-7.42,7.42-7.42,7.42,3.32,7.42,7.42-3.32,7.42-7.42,7.42Zm77.04-14.85c-3.79,1.57-8.13-.23-9.69-4.02-1.57-3.79.23-8.13,4.02-9.69,3.79-1.57,8.13.23,9.69,4.02,1.57,3.79-.23,8.13-4.02,9.69Zm65.49-43.2c-2.9,2.9-7.6,2.9-10.49,0-2.9-2.9-2.9-7.6,0-10.49,2.9-2.9,7.6-2.9,10.49,0,2.9,2.9,2.9,7.6,0,10.49Zm-141.33,20.36c-90.09,0-163.39-73.29-163.39-163.39s73.29-163.39,163.39-163.39,163.39,73.29,163.39,163.39-73.29,163.39-163.39,163.39Zm185.31-85.34c-1.57,3.79-5.91,5.58-9.7,4.02-3.79-1.57-5.58-5.91-4.02-9.69,1.57-3.79,5.91-5.58,9.69-4.02,3.79,1.57,5.58,5.91,4.02,9.69Zm8.34-69.44c-4.1,0-7.42-3.32-7.42-7.42s3.32-7.42,7.42-7.42,7.42,3.32,7.42,7.42-3.32,7.42-7.42,7.42Z"/>
  </g>
  <g>
    <g>
      <text class="cls-5" transform="translate(96.53 190.36) rotate(-58.26)"><tspan x="0" y="0">Z</tspan></text>
      <text class="cls-5" transform="translate(110.4 168.01) rotate(-52.51)"><tspan x="0" y="0">E</tspan></text>
      <text class="cls-5" transform="translate(124.54 149.42) rotate(-46.86)"><tspan x="0" y="0">R</tspan></text>
      <text class="cls-5" transform="translate(141.86 130.55) rotate(-40.09)"><tspan x="0" y="0">O</tspan></text>
      <text class="cls-5" transform="translate(167.48 109.61) rotate(-35.14)"><tspan x="0" y="0"> </tspan></text>
      <text class="cls-5" transform="translate(175.27 103.68) rotate(-30.77)"><tspan x="0" y="0">C</tspan></text>
      <text class="cls-5" transform="translate(199.04 89.42) rotate(-24.14)"><tspan x="0" y="0">A</tspan></text>
      <text class="cls-5" transform="translate(225.64 77.55) rotate(-17.75)"><tspan x="0" y="0">R</tspan></text>
      <text class="cls-5" transform="translate(249.95 69.72) rotate(-11.75)"><tspan x="0" y="0">B</tspan></text>
      <text class="cls-5" transform="translate(275.03 64.24) rotate(-4.95)"><tspan x="0" y="0">O</tspan></text>
      <text class="cls-5" transform="translate(307.68 61.4) rotate(2.37)"><tspan x="0" y="0">N</tspan></text>
      <text class="cls-5" transform="translate(339.2 63.13) rotate(7.14)"><tspan x="0" y="0"> </tspan></text>
      <text class="cls-5" transform="translate(349.02 64.11) rotate(11.01)"><tspan x="0" y="0">F</tspan></text>
      <text class="cls-5" transform="translate(371.66 68.18) rotate(17.54)"><tspan x="0" y="0">O</tspan></text>
      <text class="cls-5" transform="translate(402.89 77.98) rotate(25.19)"><tspan x="0" y="0">O</tspan></text>
      <text class="cls-5" transform="translate(431.51 91.6) rotate(31.48)"><tspan x="0" y="0">T</tspan></text>
      <text class="cls-5" transform="translate(451.67 103.85) rotate(37.14)"><tspan x="0" y="0">P</tspan></text>
      <text class="cls-5" transform="translate(471.83 119.06) rotate(43.01)"><tspan x="0" y="0">R</tspan></text>
      <text class="cls-5" transform="translate(490.5 136.82) rotate(47.27)"><tspan x="0" y="0">I</tspan></text>
      <text class="cls-5" transform="translate(498.35 144.63) rotate(52.2)"><tspan x="0" y="0">N</tspan></text>
      <text class="cls-5" transform="translate(517.44 169.5) rotate(58.55)"><tspan x="0" y="0">T</tspan></text>
    </g>
    <g>
      <text class="cls-7" transform="translate(67.9 466.9) rotate(56.13)"><tspan x="0" y="0">Z</tspan></text>
      <text class="cls-7" transform="translate(84.27 491) rotate(50.63)"><tspan x="0" y="0">E</tspan></text>
      <text class="cls-7" transform="translate(100.86 511.16) rotate(45.21)"><tspan x="0" y="0">R</tspan></text>
      <text class="cls-7" transform="translate(121.2 531.74) rotate(38.73)"><tspan x="0" y="0">O</tspan></text>
      <text class="cls-7" transform="translate(149.23 553.51) rotate(33.98)"><tspan x="0" y="0"> </tspan></text>
      <text class="cls-7" transform="translate(158.97 560.4) rotate(29.8)"><tspan x="0" y="0">C</tspan></text>
      <text class="cls-7" transform="translate(185.89 575.71) rotate(23.43)"><tspan x="0" y="0">A</tspan></text>
      <text class="cls-7" transform="translate(215.58 588.33) rotate(17.29)"><tspan x="0" y="0">R</tspan></text>
      <text class="cls-7" transform="translate(242.78 596.7) rotate(11.54)"><tspan x="0" y="0">B</tspan></text>
      <text class="cls-7" transform="translate(271.17 602.56) rotate(5.02)"><tspan x="0" y="0">O</tspan></text>
      <text class="cls-7" transform="translate(307.12 605.53) rotate(-1.93)"><tspan x="0" y="0">N</tspan></text>
      <text class="cls-7" transform="translate(341.01 603.89) rotate(-6.5)"><tspan x="0" y="0"> </tspan></text>
      <text class="cls-7" transform="translate(352.7 602.73) rotate(-10.2)"><tspan x="0" y="0">F</tspan></text>
      <text class="cls-7" transform="translate(378.51 598.23) rotate(-16.47)"><tspan x="0" y="0">O</tspan></text>
      <text class="cls-7" transform="translate(413.44 587.73) rotate(-23.81)"><tspan x="0" y="0">O</tspan></text>
      <text class="cls-7" transform="translate(445.11 573.42) rotate(-29.84)"><tspan x="0" y="0">T</tspan></text>
      <text class="cls-7" transform="translate(467.96 560.26) rotate(-35.28)"><tspan x="0" y="0">P</tspan></text>
      <text class="cls-7" transform="translate(490.88 543.93) rotate(-40.91)"><tspan x="0" y="0">R</tspan></text>
      <text class="cls-7" transform="translate(511.73 525.44) rotate(-44.99)"><tspan x="0" y="0">I</tspan></text>
      <text class="cls-7" transform="translate(521.5 516.17) rotate(-49.71)"><tspan x="0" y="0">N</tspan></text>
      <text class="cls-7" transform="translate(543.54 489.67) rotate(-55.79)"><tspan x="0" y="0">T</tspan></text>
    </g>
    <g>
      <text class="cls-2" transform="translate(197.77 335.03)"><tspan class="cls-1" x="0" y="0">C</tspan><tspan class="cls-8" x="66.97" y="0">O</tspan></text>
      <text class="cls-3" transform="translate(211.84 384.06)"><tspan x="0" y="0">NEUT</tspan><tspan class="cls-9" x="115.57" y="0">R</tspan><tspan class="cls-10" x="142.92" y="0">AL</tspan></text>
      <text class="cls-4" transform="translate(393.89 317.47)"><tspan x="0" y="0">²</tspan></text>
    </g>
  </g>
</svg>