<svg xmlns="http://www.w3.org/2000/svg" xmlns:xlink="http://www.w3.org/1999/xlink" width="500" zoomAndPan="magnify" viewBox="0 0 375 374.999991" height="500" preserveAspectRatio="xMidYMid meet" version="1.0"><defs><g/><clipPath id="fc20dee693"><path d="M 87.933594 87.933594 L 287.433594 87.933594 L 287.433594 287.433594 L 87.933594 287.433594 Z M 87.933594 87.933594 " clip-rule="nonzero"/></clipPath><clipPath id="cdb4d6b618"><path d="M 142.195312 140.246094 L 232.945312 140.246094 L 232.945312 219.746094 L 142.195312 219.746094 Z M 142.195312 140.246094 " clip-rule="nonzero"/></clipPath><clipPath id="1adc64997d"><path d="M 126.808594 126.808594 L 248.308594 126.808594 L 248.308594 248.308594 L 126.808594 248.308594 Z M 126.808594 126.808594 " clip-rule="nonzero"/></clipPath></defs><g clip-path="url(#fc20dee693)"><path fill="#141d50" d="M 187.683594 87.933594 C 132.648438 87.933594 87.933594 132.648438 87.933594 187.683594 C 87.933594 242.722656 132.648438 287.433594 187.683594 287.433594 C 242.722656 287.433594 287.433594 242.722656 287.433594 187.683594 C 287.433594 132.648438 242.722656 87.933594 187.683594 87.933594 Z M 187.683594 92.273438 C 240.433594 92.273438 283.097656 134.933594 283.097656 187.683594 C 283.097656 240.433594 240.433594 283.097656 187.683594 283.097656 C 134.933594 283.097656 92.273438 240.433594 92.273438 187.683594 C 92.273438 134.933594 134.933594 92.273438 187.683594 92.273438 Z M 187.683594 92.273438 " fill-opacity="1" fill-rule="nonzero"/></g><g clip-path="url(#cdb4d6b618)"><path fill="#ffffff" d="M 117.535156 136.671875 L 258.535156 136.671875 L 258.535156 263.421875 L 117.535156 263.421875 Z M 117.535156 136.671875 " fill-opacity="1" fill-rule="nonzero"/></g><path fill="#141d50" d="M 230.0625 213.460938 L 229.613281 213.460938 L 225.996094 208.019531 L 200.511719 169.65625 L 206.5625 160.550781 C 206.976562 159.929688 206.808594 159.082031 206.183594 158.664062 C 205.5625 158.25 204.71875 158.417969 204.304688 159.042969 L 198.882812 167.203125 L 195.089844 161.496094 L 201.136719 152.390625 C 201.550781 151.765625 201.382812 150.917969 200.761719 150.503906 C 200.140625 150.085938 199.296875 150.257812 198.882812 150.878906 L 193.457031 159.042969 L 189.664062 153.332031 L 195.714844 144.226562 C 196.128906 143.601562 195.960938 142.757812 195.339844 142.339844 C 194.714844 141.925781 193.875 142.09375 193.457031 142.71875 L 188.035156 150.878906 L 182.613281 142.71875 C 182.195312 142.09375 181.355469 141.925781 180.734375 142.339844 C 180.109375 142.757812 179.941406 143.601562 180.355469 144.226562 L 186.40625 153.332031 L 150.074219 208.019531 L 146.460938 213.460938 L 146.007812 213.460938 C 145.257812 213.460938 144.652344 214.070312 144.652344 214.820312 C 144.652344 215.574219 145.257812 216.183594 146.007812 216.183594 L 230.0625 216.183594 C 230.8125 216.183594 231.417969 215.574219 231.417969 214.820312 C 231.417969 214.070312 230.8125 213.460938 230.0625 213.460938 Z M 157.304688 213.460938 L 149.71875 213.460938 L 152.316406 209.550781 L 152.332031 209.527344 L 188.035156 155.785156 L 191.828125 161.496094 Z M 168.152344 213.460938 L 160.566406 213.460938 L 181.183594 182.425781 L 193.457031 163.949219 L 197.25 169.65625 Z M 188.035156 213.460938 L 171.410156 213.460938 L 186.605469 190.589844 L 198.882812 172.109375 L 223.742188 209.527344 L 223.753906 209.550781 L 226.351562 213.460938 Z M 188.035156 213.460938 " fill-opacity="1" fill-rule="evenodd"/><g clip-path="url(#1adc64997d)"><path fill="#141d50" d="M 187.558594 248.308594 C 153.996094 248.308594 126.808594 220.933594 126.808594 187.558594 C 126.808594 154.183594 153.996094 126.808594 187.558594 126.808594 C 221.121094 126.808594 248.308594 153.996094 248.308594 187.558594 C 248.308594 221.121094 220.933594 248.308594 187.558594 248.308594 Z M 187.558594 130.558594 C 156.058594 130.558594 130.558594 156.058594 130.558594 187.558594 C 130.558594 219.058594 156.058594 244.558594 187.558594 244.558594 C 219.058594 244.558594 244.558594 219.058594 244.558594 187.558594 C 244.558594 156.058594 218.871094 130.558594 187.558594 130.558594 Z M 187.558594 130.558594 " fill-opacity="1" fill-rule="nonzero"/></g><g fill="#141d50" fill-opacity="1"><g transform="translate(120.171919, 160.742182)"><g><path d="M -5.984375 -22.5 L 8.140625 -14.640625 L 6.328125 -11.359375 L 0.546875 -14.578125 L -3.03125 -8.15625 L 2.75 -4.9375 L 0.9375 -1.671875 L -13.1875 -9.53125 L -11.375 -12.796875 L -5.8125 -9.703125 L -2.234375 -16.125 L -7.796875 -19.21875 Z M -5.984375 -22.5 "/></g></g></g><g fill="#141d50" fill-opacity="1"><g transform="translate(131.093883, 141.960094)"><g><path d="M 7.265625 -6.5 C 6.046875 -5.34375 4.695312 -4.5625 3.21875 -4.15625 C 1.75 -3.757812 0.300781 -3.757812 -1.125 -4.15625 C -2.550781 -4.5625 -3.804688 -5.335938 -4.890625 -6.484375 C -5.992188 -7.648438 -6.703125 -8.953125 -7.015625 -10.390625 C -7.335938 -11.828125 -7.253906 -13.269531 -6.765625 -14.71875 C -6.285156 -16.175781 -5.4375 -17.484375 -4.21875 -18.640625 C -3 -19.796875 -1.65625 -20.566406 -0.1875 -20.953125 C 1.28125 -21.347656 2.726562 -21.351562 4.15625 -20.96875 C 5.582031 -20.582031 6.847656 -19.804688 7.953125 -18.640625 C 9.035156 -17.492188 9.734375 -16.191406 10.046875 -14.734375 C 10.367188 -13.285156 10.289062 -11.835938 9.8125 -10.390625 C 9.332031 -8.953125 8.484375 -7.65625 7.265625 -6.5 Z M 5.078125 -8.8125 C 5.765625 -9.46875 6.238281 -10.21875 6.5 -11.0625 C 6.757812 -11.90625 6.78125 -12.765625 6.5625 -13.640625 C 6.34375 -14.515625 5.890625 -15.3125 5.203125 -16.03125 C 4.515625 -16.757812 3.738281 -17.257812 2.875 -17.53125 C 2.019531 -17.800781 1.160156 -17.832031 0.296875 -17.625 C -0.566406 -17.414062 -1.34375 -16.984375 -2.03125 -16.328125 C -2.726562 -15.671875 -3.203125 -14.914062 -3.453125 -14.0625 C -3.710938 -13.21875 -3.726562 -12.359375 -3.5 -11.484375 C -3.28125 -10.609375 -2.828125 -9.804688 -2.140625 -9.078125 C -1.453125 -8.359375 -0.679688 -7.863281 0.171875 -7.59375 C 1.023438 -7.320312 1.878906 -7.289062 2.734375 -7.5 C 3.597656 -7.71875 4.378906 -8.15625 5.078125 -8.8125 Z M 5.078125 -8.8125 "/></g></g></g><g fill="#141d50" fill-opacity="1"><g transform="translate(148.077748, 126.953021)"><g><path d="M 6.546875 -3.078125 C 5.410156 -2.484375 4.234375 -2.066406 3.015625 -1.828125 C 1.796875 -1.597656 0.734375 -1.5625 -0.171875 -1.71875 L -0.328125 -4.796875 C 0.515625 -4.671875 1.429688 -4.6875 2.421875 -4.84375 C 3.410156 -5 4.332031 -5.296875 5.1875 -5.734375 C 6.132812 -6.222656 6.757812 -6.726562 7.0625 -7.25 C 7.375 -7.769531 7.410156 -8.257812 7.171875 -8.71875 C 6.992188 -9.0625 6.707031 -9.273438 6.3125 -9.359375 C 5.925781 -9.453125 5.488281 -9.457031 5 -9.375 C 4.519531 -9.300781 3.882812 -9.160156 3.09375 -8.953125 C 1.863281 -8.648438 0.832031 -8.445312 0 -8.34375 C -0.832031 -8.25 -1.644531 -8.359375 -2.4375 -8.671875 C -3.238281 -8.992188 -3.890625 -9.628906 -4.390625 -10.578125 C -4.816406 -11.410156 -4.976562 -12.285156 -4.875 -13.203125 C -4.78125 -14.117188 -4.378906 -15.003906 -3.671875 -15.859375 C -2.972656 -16.722656 -1.96875 -17.492188 -0.65625 -18.171875 C 0.257812 -18.648438 1.210938 -19.003906 2.203125 -19.234375 C 3.191406 -19.472656 4.117188 -19.554688 4.984375 -19.484375 L 5.265625 -16.4375 C 3.546875 -16.5 2.023438 -16.191406 0.703125 -15.515625 C -0.222656 -15.023438 -0.832031 -14.515625 -1.125 -13.984375 C -1.414062 -13.453125 -1.429688 -12.941406 -1.171875 -12.453125 C -0.921875 -11.960938 -0.476562 -11.726562 0.15625 -11.75 C 0.800781 -11.78125 1.707031 -11.953125 2.875 -12.265625 C 4.101562 -12.578125 5.132812 -12.78125 5.96875 -12.875 C 6.800781 -12.976562 7.613281 -12.875 8.40625 -12.5625 C 9.195312 -12.257812 9.84375 -11.632812 10.34375 -10.6875 C 10.769531 -9.863281 10.925781 -8.992188 10.8125 -8.078125 C 10.707031 -7.160156 10.296875 -6.265625 9.578125 -5.390625 C 8.867188 -4.523438 7.859375 -3.753906 6.546875 -3.078125 Z M 6.546875 -3.078125 "/></g></g></g><g fill="#141d50" fill-opacity="1"><g transform="translate(164.39747, 119.004362)"><g><path d="M 2.125 -13.984375 L -2.90625 -12.796875 L -3.609375 -15.765625 L 10.09375 -18.984375 L 10.796875 -16.015625 L 5.765625 -14.84375 L 8.765625 -2.0625 L 5.125 -1.203125 Z M 2.125 -13.984375 "/></g></g></g><g fill="#141d50" fill-opacity="1"><g transform="translate(181.67595, 115.30522)"><g><path d="M 14.5 -2.6875 L 14.4375 0.3125 L 1.921875 0.046875 L 2.265625 -16.125 L 14.484375 -15.875 L 14.421875 -12.859375 L 5.921875 -13.03125 L 5.84375 -9.53125 L 13.34375 -9.375 L 13.28125 -6.46875 L 5.78125 -6.625 L 5.703125 -2.875 Z M 14.5 -2.6875 "/></g></g></g><g fill="#141d50" fill-opacity="1"><g transform="translate(200.390839, 115.90627)"><g><path d="M 6.65625 -14.859375 L 13.671875 -12.671875 C 15.335938 -12.148438 16.710938 -11.363281 17.796875 -10.3125 C 18.890625 -9.269531 19.609375 -8.050781 19.953125 -6.65625 C 20.304688 -5.269531 20.242188 -3.804688 19.765625 -2.265625 C 19.273438 -0.722656 18.492188 0.507812 17.421875 1.4375 C 16.347656 2.375 15.066406 2.957031 13.578125 3.1875 C 12.085938 3.425781 10.507812 3.285156 8.84375 2.765625 L 1.828125 0.578125 Z M 9.578125 -0.21875 C 11.117188 0.257812 12.484375 0.21875 13.671875 -0.34375 C 14.859375 -0.914062 15.6875 -1.9375 16.15625 -3.40625 C 16.613281 -4.882812 16.515625 -6.195312 15.859375 -7.34375 C 15.203125 -8.488281 14.101562 -9.300781 12.5625 -9.78125 L 9.296875 -10.8125 L 6.3125 -1.25 Z M 9.578125 -0.21875 "/></g></g></g><g fill="#141d50" fill-opacity="1"><g transform="translate(221.584908, 123.703133)"><g/></g></g><g fill="#141d50" fill-opacity="1"><g transform="translate(230.518564, 128.551559)"><g><path d="M 6.890625 6.90625 C 5.671875 5.75 4.816406 4.441406 4.328125 2.984375 C 3.847656 1.535156 3.769531 0.09375 4.09375 -1.34375 C 4.414062 -2.789062 5.117188 -4.085938 6.203125 -5.234375 C 7.304688 -6.398438 8.566406 -7.179688 9.984375 -7.578125 C 11.410156 -7.972656 12.859375 -7.96875 14.328125 -7.5625 C 15.804688 -7.164062 17.15625 -6.390625 18.375 -5.234375 C 19.59375 -4.078125 20.441406 -2.773438 20.921875 -1.328125 C 21.398438 0.109375 21.484375 1.550781 21.171875 3 C 20.859375 4.445312 20.148438 5.753906 19.046875 6.921875 C 17.960938 8.066406 16.703125 8.832031 15.265625 9.21875 C 13.835938 9.613281 12.390625 9.613281 10.921875 9.21875 C 9.453125 8.832031 8.109375 8.0625 6.890625 6.90625 Z M 9.078125 4.59375 C 9.765625 5.25 10.539062 5.679688 11.40625 5.890625 C 12.269531 6.097656 13.128906 6.066406 13.984375 5.796875 C 14.835938 5.523438 15.609375 5.03125 16.296875 4.3125 C 16.984375 3.582031 17.4375 2.78125 17.65625 1.90625 C 17.882812 1.03125 17.867188 0.171875 17.609375 -0.671875 C 17.347656 -1.515625 16.875 -2.265625 16.1875 -2.921875 C 15.488281 -3.578125 14.707031 -4.007812 13.84375 -4.21875 C 12.988281 -4.4375 12.128906 -4.410156 11.265625 -4.140625 C 10.410156 -3.867188 9.640625 -3.367188 8.953125 -2.640625 C 8.265625 -1.921875 7.8125 -1.125 7.59375 -0.25 C 7.375 0.625 7.390625 1.484375 7.640625 2.328125 C 7.898438 3.179688 8.378906 3.9375 9.078125 4.59375 Z M 9.078125 4.59375 "/></g></g></g><g fill="#141d50" fill-opacity="1"><g transform="translate(246.517406, 144.433785)"><g><path d="M 22.265625 6.78125 L 8.140625 14.640625 L 6.65625 11.953125 L 11.3125 0.140625 L 2.734375 4.90625 L 0.9375 1.671875 L 15.0625 -6.1875 L 16.5625 -3.484375 L 11.890625 8.328125 L 20.46875 3.546875 Z M 22.265625 6.78125 "/></g></g></g><g fill="#141d50" fill-opacity="1"><g transform="translate(119.733717, 241.647272)"><g><path d="M 12.890625 -9.953125 L 18.03125 -4.71875 C 19.257812 -3.46875 20.101562 -2.125 20.5625 -0.6875 C 21.03125 0.738281 21.085938 2.144531 20.734375 3.53125 C 20.390625 4.914062 19.640625 6.175781 18.484375 7.3125 C 17.328125 8.4375 16.054688 9.160156 14.671875 9.484375 C 13.285156 9.804688 11.878906 9.71875 10.453125 9.21875 C 9.035156 8.726562 7.710938 7.859375 6.484375 6.609375 L 1.34375 1.375 Z M 8.5625 4.328125 C 9.6875 5.472656 10.90625 6.078125 12.21875 6.140625 C 13.53125 6.203125 14.738281 5.691406 15.84375 4.609375 C 16.945312 3.523438 17.476562 2.320312 17.4375 1 C 17.40625 -0.3125 16.828125 -1.539062 15.703125 -2.6875 L 13.3125 -5.140625 L 6.171875 1.875 Z M 8.5625 4.328125 "/></g></g></g><g fill="#141d50" fill-opacity="1"><g transform="translate(139.153225, 259.559673)"><g><path d="M 14.078125 4.390625 L 12.625 7.015625 L 1.6875 0.9375 L 9.53125 -13.203125 L 20.203125 -7.28125 L 18.75 -4.640625 L 11.328125 -8.765625 L 9.625 -5.703125 L 16.171875 -2.0625 L 14.765625 0.46875 L 8.21875 -3.171875 L 6.390625 0.109375 Z M 14.078125 4.390625 "/></g></g></g><g fill="#141d50" fill-opacity="1"><g transform="translate(159.476761, 269.813493)"><g><path d="M 12.421875 -13.671875 C 13.804688 -13.347656 14.953125 -12.832031 15.859375 -12.125 C 16.765625 -11.414062 17.394531 -10.566406 17.75 -9.578125 C 18.113281 -8.585938 18.15625 -7.507812 17.875 -6.34375 C 17.601562 -5.1875 17.082031 -4.242188 16.3125 -3.515625 C 15.550781 -2.785156 14.609375 -2.3125 13.484375 -2.09375 C 12.359375 -1.882812 11.101562 -1.941406 9.71875 -2.265625 L 6.53125 -3.03125 L 5.5 1.296875 L 1.875 0.4375 L 5.609375 -15.296875 Z M 10.203125 -5.296875 C 11.296875 -5.035156 12.179688 -5.070312 12.859375 -5.40625 C 13.535156 -5.75 13.976562 -6.351562 14.1875 -7.21875 C 14.394531 -8.101562 14.269531 -8.847656 13.8125 -9.453125 C 13.363281 -10.066406 12.59375 -10.503906 11.5 -10.765625 L 8.53125 -11.46875 L 7.234375 -6 Z M 10.203125 -5.296875 "/></g></g></g><g fill="#141d50" fill-opacity="1"><g transform="translate(183.130967, 274.244849)"><g><path d="M 1.40625 -16.21875 L 5.140625 -16.328125 L 5.5625 -3.21875 L 13.671875 -3.484375 L 13.765625 -0.4375 L 1.921875 -0.0625 Z M 1.40625 -16.21875 "/></g></g></g><g fill="#141d50" fill-opacity="1"><g transform="translate(204.391655, 272.929662)"><g><path d="M 9.375 -2.734375 C 7.78125 -2.210938 6.226562 -2.085938 4.71875 -2.359375 C 3.207031 -2.640625 1.894531 -3.265625 0.78125 -4.234375 C -0.332031 -5.210938 -1.132812 -6.457031 -1.625 -7.96875 C -2.113281 -9.488281 -2.191406 -10.96875 -1.859375 -12.40625 C -1.523438 -13.84375 -0.828125 -15.109375 0.234375 -16.203125 C 1.304688 -17.304688 2.640625 -18.117188 4.234375 -18.640625 C 5.828125 -19.148438 7.367188 -19.265625 8.859375 -18.984375 C 10.359375 -18.710938 11.664062 -18.09375 12.78125 -17.125 C 13.90625 -16.164062 14.710938 -14.925781 15.203125 -13.40625 C 15.691406 -11.894531 15.765625 -10.414062 15.421875 -8.96875 C 15.085938 -7.519531 14.394531 -6.242188 13.34375 -5.140625 C 12.289062 -4.046875 10.96875 -3.242188 9.375 -2.734375 Z M 8.390625 -5.765625 C 9.285156 -6.054688 10.03125 -6.523438 10.625 -7.171875 C 11.226562 -7.828125 11.617188 -8.597656 11.796875 -9.484375 C 11.972656 -10.367188 11.90625 -11.285156 11.59375 -12.234375 C 11.289062 -13.179688 10.804688 -13.960938 10.140625 -14.578125 C 9.484375 -15.191406 8.71875 -15.585938 7.84375 -15.765625 C 6.976562 -15.953125 6.097656 -15.898438 5.203125 -15.609375 C 4.285156 -15.304688 3.523438 -14.828125 2.921875 -14.171875 C 2.328125 -13.523438 1.941406 -12.757812 1.765625 -11.875 C 1.597656 -10.988281 1.664062 -10.070312 1.96875 -9.125 C 2.28125 -8.175781 2.765625 -7.394531 3.421875 -6.78125 C 4.078125 -6.164062 4.835938 -5.765625 5.703125 -5.578125 C 6.578125 -5.398438 7.472656 -5.460938 8.390625 -5.765625 Z M 8.390625 -5.765625 "/></g></g></g><g fill="#141d50" fill-opacity="1"><g transform="translate(229.018538, 263.351273)"><g><path d="M -6.84375 -14.78125 L -3.671875 -16.734375 L 4.8125 -2.96875 L 1.640625 -1.015625 Z M -6.84375 -14.78125 "/></g></g></g><g fill="#141d50" fill-opacity="1"><g transform="translate(241.404982, 255.564641)"><g><path d="M 7.046875 -6.734375 C 5.867188 -5.546875 4.546875 -4.722656 3.078125 -4.265625 C 1.617188 -3.816406 0.171875 -3.765625 -1.265625 -4.109375 C -2.703125 -4.460938 -3.984375 -5.195312 -5.109375 -6.3125 C -6.242188 -7.4375 -6.992188 -8.710938 -7.359375 -10.140625 C -7.734375 -11.566406 -7.703125 -13.015625 -7.265625 -14.484375 C -6.835938 -15.960938 -6.035156 -17.296875 -4.859375 -18.484375 C -3.679688 -19.679688 -2.363281 -20.5 -0.90625 -20.9375 C 0.550781 -21.382812 2 -21.4375 3.4375 -21.09375 C 4.882812 -20.757812 6.175781 -20.03125 7.3125 -18.90625 C 8.4375 -17.789062 9.179688 -16.515625 9.546875 -15.078125 C 9.910156 -13.640625 9.878906 -12.1875 9.453125 -10.71875 C 9.023438 -9.257812 8.222656 -7.929688 7.046875 -6.734375 Z M 4.78125 -8.984375 C 5.445312 -9.660156 5.894531 -10.425781 6.125 -11.28125 C 6.351562 -12.132812 6.335938 -12.992188 6.078125 -13.859375 C 5.828125 -14.722656 5.347656 -15.503906 4.640625 -16.203125 C 3.929688 -16.898438 3.140625 -17.367188 2.265625 -17.609375 C 1.398438 -17.859375 0.539062 -17.859375 -0.3125 -17.609375 C -1.164062 -17.367188 -1.925781 -16.910156 -2.59375 -16.234375 C -3.257812 -15.554688 -3.707031 -14.789062 -3.9375 -13.9375 C -4.164062 -13.082031 -4.148438 -12.222656 -3.890625 -11.359375 C -3.640625 -10.492188 -3.160156 -9.710938 -2.453125 -9.015625 C -1.742188 -8.316406 -0.953125 -7.84375 -0.078125 -7.59375 C 0.785156 -7.351562 1.644531 -7.351562 2.5 -7.59375 C 3.351562 -7.84375 4.113281 -8.304688 4.78125 -8.984375 Z M 4.78125 -8.984375 "/></g></g></g></svg>