<svg xmlns="http://www.w3.org/2000/svg" xmlns:xlink="http://www.w3.org/1999/xlink" width="1000" zoomAndPan="magnify" viewBox="200 0 1200 1000" height="1000" preserveAspectRatio="xMidYMid meet" version="1.0"><defs><clipPath id="dbc677d2ad"><path d="M 640.296875 398.695312 L 710.023438 398.695312 L 710.023438 469.167969 L 640.296875 469.167969 Z M 640.296875 398.695312 " clip-rule="nonzero"/></clipPath></defs><g clip-path="url(#dbc677d2ad)"><path fill="#ffffff" d="M 710.023438 433.976562 C 710.054688 453.316406 694.441406 469.039062 675.171875 469.066406 C 655.929688 469.097656 640.21875 453.308594 640.296875 433.847656 C 640.375 414.398438 655.84375 398.859375 675.0625 398.796875 C 694.605469 398.734375 710.078125 414.699219 710.023438 433.976562 Z M 675.179688 399.464844 C 656.128906 399.480469 640.886719 414.878906 640.957031 434.175781 C 641.023438 452.984375 656.273438 468.628906 675.59375 468.421875 C 694.410156 468.21875 709.519531 452.613281 709.394531 433.609375 C 709.273438 414.835938 693.957031 399.449219 675.179688 399.464844 Z M 675.179688 399.464844 " fill-opacity="1" fill-rule="nonzero"/></g><path fill="#ffffff" d="M 668.230469 466.214844 C 667.945312 466.1875 667.722656 466.164062 667.441406 466.136719 C 667.710938 464.535156 667.96875 462.996094 668.234375 461.421875 C 668.566406 461.46875 668.820312 461.523438 669.074219 461.53125 C 669.476562 461.542969 669.582031 461.753906 669.601562 462.125 C 669.65625 463.214844 669.75 464.300781 669.996094 465.433594 C 670.476562 464.289062 670.953125 463.140625 671.457031 461.945312 C 671.859375 462.023438 672.246094 462.097656 672.75 462.195312 C 672.492188 463.761719 672.234375 465.292969 671.972656 466.898438 C 671.691406 466.839844 671.472656 466.796875 671.183594 466.738281 C 671.390625 465.496094 671.589844 464.285156 671.792969 463.074219 C 671.734375 463.054688 671.679688 463.03125 671.621094 463.011719 C 671.128906 464.183594 670.640625 465.359375 670.152344 466.519531 C 669.382812 466.644531 669.191406 466.277344 669.191406 465.59375 C 669.191406 464.582031 669.109375 463.570312 669.0625 462.554688 C 669 462.554688 668.933594 462.550781 668.871094 462.550781 C 668.660156 463.757812 668.449219 464.964844 668.226562 466.214844 Z M 668.230469 466.214844 " fill-opacity="1" fill-rule="nonzero"/><path fill="#ffffff" d="M 688.679688 460.398438 C 689.191406 461.328125 689.707031 462.257812 690.246094 463.238281 C 690.03125 463.386719 689.847656 463.515625 689.597656 463.691406 C 688.808594 462.292969 688.042969 460.9375 687.277344 459.578125 C 687.734375 459.007812 688.164062 459.019531 688.746094 459.421875 C 689.558594 459.988281 690.441406 460.449219 691.441406 460.863281 C 690.933594 459.929688 690.425781 458.996094 689.894531 458.015625 C 690.109375 457.882812 690.296875 457.765625 690.550781 457.605469 C 691.339844 459.003906 692.105469 460.359375 692.871094 461.71875 C 692.410156 462.257812 691.96875 462.214844 691.402344 461.828125 C 690.574219 461.253906 689.679688 460.777344 688.8125 460.257812 C 688.769531 460.304688 688.722656 460.351562 688.679688 460.398438 Z M 688.679688 460.398438 " fill-opacity="1" fill-rule="nonzero"/><path fill="#ffffff" d="M 669.511719 406.613281 C 669.171875 406.703125 668.921875 406.765625 668.582031 406.851562 C 668.453125 406.484375 668.363281 406.121094 668.191406 405.796875 C 668.070312 405.570312 667.828125 405.230469 667.652344 405.242188 C 667.199219 405.265625 666.746094 405.4375 666.308594 405.59375 C 666.261719 405.609375 666.28125 405.902344 666.316406 406.050781 C 666.421875 406.464844 666.554688 406.871094 666.699219 407.363281 C 666.4375 407.453125 666.191406 407.539062 665.882812 407.644531 C 665.445312 406.09375 665.03125 404.609375 664.578125 403.003906 C 665.515625 402.765625 666.410156 402.449219 667.328125 402.324219 C 668.160156 402.207031 668.8125 403.179688 668.550781 403.996094 C 668.484375 404.195312 668.375 404.378906 668.492188 404.5 C 668.816406 405.175781 669.144531 405.851562 669.515625 406.613281 Z M 665.992188 404.863281 C 667.613281 404.484375 667.9375 404.242188 667.746094 403.625 C 667.5625 403.03125 666.96875 402.875 666 403.378906 C 665.214844 403.785156 666.003906 404.328125 665.992188 404.863281 Z M 665.992188 404.863281 " fill-opacity="1" fill-rule="nonzero"/><path fill="#ffffff" d="M 665.140625 461.605469 C 665.117188 463.144531 663.988281 464.480469 662.722656 464.464844 C 661.421875 464.449219 660.410156 463.476562 660.410156 462.242188 C 660.414062 460.699219 661.527344 459.355469 662.796875 459.363281 C 664.15625 459.371094 665.160156 460.332031 665.140625 461.605469 Z M 664.273438 461.554688 C 664.300781 460.773438 663.761719 460.183594 662.988281 460.15625 C 662.164062 460.121094 661.324219 461.121094 661.269531 462.191406 C 661.230469 462.996094 661.789062 463.648438 662.558594 463.6875 C 663.359375 463.730469 664.238281 462.640625 664.273438 461.558594 Z M 664.273438 461.554688 " fill-opacity="1" fill-rule="nonzero"/><path fill="#ffffff" d="M 692.894531 412.296875 C 693.859375 411.273438 694.917969 410.152344 696.0625 408.933594 C 696.675781 409.5625 697.285156 410.179688 697.878906 410.804688 C 697.972656 410.902344 698.03125 411.046875 698.078125 411.179688 C 698.382812 412.027344 697.824219 413.210938 696.796875 413.90625 C 695.847656 414.550781 695.023438 414.554688 694.269531 413.84375 C 693.792969 413.386719 693.386719 412.855469 692.894531 412.296875 Z M 696.203125 410.0625 C 695.390625 410.925781 694.664062 411.695312 693.917969 412.484375 C 694.464844 413.015625 694.859375 413.707031 695.679688 413.457031 C 696.492188 413.210938 697.082031 412.628906 697.285156 411.785156 C 697.496094 410.914062 696.664062 410.660156 696.203125 410.0625 Z M 696.203125 410.0625 " fill-opacity="1" fill-rule="nonzero"/><path fill="#ffffff" d="M 688.074219 409.292969 C 688.910156 407.910156 689.707031 406.59375 690.539062 405.210938 C 691.53125 405.8125 692.472656 406.386719 693.476562 406.996094 C 693.347656 407.203125 693.234375 407.386719 693.101562 407.605469 C 692.363281 407.164062 691.675781 406.753906 690.929688 406.3125 C 690.714844 406.632812 690.523438 406.914062 690.289062 407.261719 C 690.96875 407.691406 691.601562 408.089844 692.277344 408.519531 C 692.179688 408.714844 692.089844 408.894531 692 409.082031 C 691.898438 409.058594 691.820312 409.066406 691.765625 409.03125 C 691.457031 408.851562 691.152344 408.664062 690.851562 408.476562 C 689.816406 407.832031 689.78125 407.84375 689.28125 409.132812 C 689.984375 409.578125 690.703125 410.03125 691.464844 410.511719 C 691.347656 410.722656 691.242188 410.914062 691.109375 411.148438 C 690.089844 410.523438 689.125 409.933594 688.074219 409.289062 Z M 688.074219 409.292969 " fill-opacity="1" fill-rule="nonzero"/><path fill="#ffffff" d="M 662.566406 406.707031 C 661.917969 407.0625 661.265625 407.421875 660.550781 407.8125 C 660.777344 408.234375 660.972656 408.601562 661.199219 409.019531 C 662 408.601562 662.75 408.210938 663.550781 407.796875 C 663.675781 407.996094 663.78125 408.167969 663.929688 408.40625 C 662.875 408.976562 661.863281 409.527344 660.785156 410.113281 C 660.050781 408.714844 659.328125 407.335938 658.566406 405.886719 C 659.566406 405.34375 660.539062 404.820312 661.550781 404.273438 C 661.671875 404.464844 661.777344 404.636719 661.929688 404.878906 C 661.175781 405.292969 660.460938 405.6875 659.664062 406.125 C 659.855469 406.464844 660.027344 406.777344 660.230469 407.136719 C 660.789062 406.84375 661.304688 406.597656 661.789062 406.308594 C 662.234375 406.046875 662.484375 406.121094 662.570312 406.710938 Z M 662.566406 406.707031 " fill-opacity="1" fill-rule="nonzero"/><path fill="#ffffff" d="M 682.097656 466.164062 C 682.199219 464.59375 682.277344 463.074219 682.414062 461.5625 C 682.429688 461.375 682.738281 461.140625 682.957031 461.070312 C 683.148438 461.007812 683.507812 461.066406 683.613281 461.210938 C 684.53125 462.445312 685.402344 463.710938 686.304688 464.988281 C 685.800781 465.285156 685.402344 465.429688 685.058594 464.792969 C 684.976562 464.636719 684.609375 464.578125 684.375 464.582031 C 684.097656 464.589844 683.828125 464.722656 683.550781 464.78125 C 683.171875 464.855469 682.96875 465.054688 683 465.464844 C 683.039062 466.039062 682.71875 466.214844 682.097656 466.164062 Z M 684.433594 463.796875 C 684.003906 463.171875 683.648438 462.65625 683.292969 462.136719 C 683.234375 462.167969 683.179688 462.199219 683.121094 462.226562 L 683.121094 464.164062 C 683.554688 464.042969 683.910156 463.945312 684.433594 463.796875 Z M 684.433594 463.796875 " fill-opacity="1" fill-rule="nonzero"/><path fill="#ffffff" d="M 657.933594 410.179688 C 658.390625 410.972656 658.367188 411.664062 657.875 412.304688 C 657.300781 413.046875 656.460938 413.375 655.695312 413.152344 C 654.628906 412.839844 653.605469 411.625 653.558594 410.527344 C 653.515625 409.625 654 408.992188 654.757812 408.566406 C 655.464844 408.167969 656.152344 408.207031 656.828125 408.742188 C 656.539062 409.09375 656.3125 409.351562 655.769531 409.179688 C 654.96875 408.925781 654.152344 409.808594 654.496094 410.601562 C 654.765625 411.21875 655.273438 411.785156 655.800781 412.210938 C 656.03125 412.398438 656.644531 412.3125 656.964844 412.132812 C 657.222656 411.984375 657.484375 411.460938 657.414062 411.191406 C 657.265625 410.609375 657.574219 410.425781 657.933594 410.179688 Z M 657.933594 410.179688 " fill-opacity="1" fill-rule="nonzero"/><path fill="#ffffff" d="M 676.539062 466.921875 C 676.320312 466.9375 676.074219 466.953125 675.789062 466.972656 C 675.671875 465.375 675.558594 463.839844 675.433594 462.121094 C 676.355469 462.121094 677.199219 462.070312 678.035156 462.132812 C 678.734375 462.1875 679.074219 462.761719 679.074219 463.667969 C 679.070312 464.464844 678.734375 464.902344 678.015625 465.042969 C 677.539062 465.132812 676.894531 465.074219 676.640625 465.363281 C 676.414062 465.621094 676.613281 466.261719 676.621094 466.734375 C 676.621094 466.777344 676.585938 466.820312 676.539062 466.925781 Z M 676.367188 464.425781 C 677.148438 464.367188 677.808594 464.632812 678.101562 463.960938 C 678.21875 463.707031 678.105469 463.089844 677.9375 463.015625 C 677.539062 462.847656 676.832031 462.707031 676.636719 462.917969 C 676.367188 463.210938 676.453125 463.832031 676.371094 464.425781 Z M 676.367188 464.425781 " fill-opacity="1" fill-rule="nonzero"/><path fill="#ffffff" d="M 658.703125 458.59375 C 658.320312 458.4375 658.046875 458.273438 658.085938 457.734375 C 658.148438 456.835938 657.292969 456.28125 656.488281 456.660156 C 655.769531 457 655.242188 457.582031 655.125 458.371094 C 655.074219 458.734375 655.230469 459.261719 655.488281 459.492188 C 655.738281 459.710938 656.242188 459.636719 656.632812 459.703125 C 656.949219 459.753906 657.261719 459.824219 657.710938 459.910156 C 656.839844 460.675781 656.097656 460.765625 655.335938 460.339844 C 654.511719 459.878906 654.058594 459.003906 654.257812 458.128906 C 654.484375 457.121094 655.085938 456.371094 655.996094 455.90625 C 656.765625 455.515625 657.730469 455.757812 658.390625 456.453125 C 659.019531 457.105469 659.117188 457.761719 658.703125 458.59375 Z M 658.703125 458.59375 " fill-opacity="1" fill-rule="nonzero"/><path fill="#ffffff" d="M 682.003906 402.78125 C 681.527344 403.984375 681.539062 404.007812 682.6875 404.269531 C 683.011719 404.34375 683.328125 404.421875 683.710938 404.511719 C 683.664062 404.726562 683.625 404.917969 683.570312 405.179688 C 683.027344 405.054688 682.519531 404.96875 682.03125 404.820312 C 681.601562 404.695312 681.417969 404.832031 681.339844 405.257812 C 681.253906 405.722656 681.121094 406.179688 680.988281 406.707031 C 680.691406 406.628906 680.433594 406.5625 680.148438 406.484375 C 680.523438 404.917969 680.878906 403.417969 681.25 401.867188 C 682.34375 402.125 683.371094 402.367188 684.453125 402.621094 C 684.414062 402.847656 684.382812 403.046875 684.335938 403.304688 C 683.546875 403.128906 682.792969 402.960938 682.003906 402.78125 Z M 682.003906 402.78125 " fill-opacity="1" fill-rule="nonzero"/><path fill="#ffffff" d="M 695.550781 456.410156 C 695.355469 455.769531 695.269531 455.324219 695.085938 454.921875 C 694.804688 454.300781 694.90625 453.84375 695.554688 453.5 C 696.144531 455.015625 695.953125 456.894531 697.644531 457.972656 C 697.367188 458.226562 697.171875 458.40625 696.886719 458.667969 C 696.003906 456.882812 694.109375 456.941406 692.632812 456.210938 C 692.996094 455.640625 693.375 455.40625 694 455.78125 C 694.410156 456.03125 694.902344 456.15625 695.550781 456.410156 Z M 695.550781 456.410156 " fill-opacity="1" fill-rule="nonzero"/><path fill="#ffffff" d="M 671.070312 402.230469 L 671.070312 401.546875 C 672.261719 401.453125 673.457031 401.359375 674.714844 401.261719 C 674.757812 401.496094 674.792969 401.695312 674.839844 401.941406 C 674.621094 401.980469 674.445312 402.027344 674.265625 402.042969 C 673.34375 402.109375 673.351562 402.105469 673.4375 403.042969 C 673.511719 403.851562 673.578125 404.660156 673.632812 405.472656 C 673.6875 406.207031 673.628906 406.25 672.804688 406.148438 C 672.707031 404.855469 672.605469 403.554688 672.503906 402.230469 Z M 671.070312 402.230469 " fill-opacity="1" fill-rule="nonzero"/><path fill="#ffffff" d="M 686.953125 403.578125 C 687.246094 403.695312 687.480469 403.792969 687.769531 403.914062 C 687.183594 405.367188 686.605469 406.792969 686 408.296875 C 685.742188 408.214844 685.507812 408.140625 685.164062 408.035156 C 685.769531 406.535156 686.355469 405.074219 686.957031 403.578125 Z M 686.953125 403.578125 " fill-opacity="1" fill-rule="nonzero"/><path fill="#ffffff" d="M 677.875 406.167969 C 677.230469 406.300781 676.957031 406.117188 677.027344 405.445312 C 677.167969 404.121094 677.265625 402.792969 677.390625 401.386719 C 677.667969 401.40625 677.910156 401.421875 678.238281 401.441406 C 678.117188 403.054688 677.996094 404.609375 677.875 406.167969 Z M 677.875 406.167969 " fill-opacity="1" fill-rule="nonzero"/><path fill="#ffffff" d="M 693.21875 430.183594 C 693.050781 431.03125 692.933594 431.957031 692.675781 432.84375 C 692.242188 434.34375 691.28125 435.4375 689.84375 436.050781 C 687.429688 437.082031 685.007812 437.085938 682.601562 436.007812 C 680.0625 434.871094 679.082031 432.320312 679.285156 429.386719 C 679.328125 428.816406 679.433594 428.246094 679.566406 427.695312 C 680.050781 425.730469 681.261719 424.4375 683.167969 423.796875 C 685.945312 422.859375 688.578125 423.089844 691.023438 424.785156 C 691.992188 425.457031 692.515625 426.457031 692.800781 427.558594 C 693.011719 428.382812 693.074219 429.246094 693.21875 430.1875 Z M 688.367188 429.867188 C 688.316406 429.367188 688.261719 428.777344 688.195312 428.1875 C 688.097656 427.359375 687.710938 426.882812 686.992188 426.6875 C 686.085938 426.449219 684.886719 426.75 684.507812 427.328125 C 684.433594 427.445312 684.363281 427.578125 684.335938 427.714844 C 684.046875 429.277344 683.945312 430.851562 684.445312 432.375 C 684.574219 432.765625 685.050781 433.175781 685.453125 433.308594 C 685.941406 433.46875 686.53125 433.414062 687.054688 433.320312 C 687.722656 433.203125 688.117188 432.722656 688.191406 432.027344 C 688.265625 431.34375 688.304688 430.652344 688.367188 429.867188 Z M 688.367188 429.867188 " fill-opacity="1" fill-rule="nonzero"/><path fill="#ffffff" d="M 675.171875 433.125 C 674.703125 432.882812 674.421875 432.683594 674.105469 432.585938 C 672.773438 432.164062 671.425781 431.800781 670.097656 431.359375 C 668.519531 430.835938 667.195312 429.96875 666.835938 428.195312 C 666.367188 425.859375 667.769531 423.898438 670.152344 423.441406 C 672.082031 423.070312 673.925781 423.292969 675.726562 424.320312 C 675.683594 423.65625 676.089844 423.652344 676.535156 423.664062 C 677.195312 423.683594 677.855469 423.667969 678.558594 423.667969 L 678.558594 428.117188 C 677.738281 428.117188 676.9375 428.140625 676.144531 428.097656 C 675.945312 428.089844 675.730469 427.890625 675.574219 427.730469 C 674.484375 426.589844 673.105469 426.273438 671.613281 426.332031 C 671.339844 426.34375 671.078125 426.628906 670.808594 426.785156 C 671.027344 426.96875 671.222656 427.242188 671.476562 427.320312 C 672.941406 427.789062 674.429688 428.183594 675.894531 428.65625 C 678.285156 429.429688 679.597656 431.761719 678.847656 433.90625 C 678.226562 435.695312 676.8125 436.460938 675.0625 436.726562 C 673.238281 437.003906 671.542969 436.546875 669.867188 435.6875 C 669.957031 436.484375 669.496094 436.511719 668.9375 436.503906 C 666.890625 436.488281 666.890625 436.503906 666.890625 434.457031 C 666.890625 433.714844 666.910156 432.972656 666.882812 432.230469 C 666.871094 431.789062 667.042969 431.625 667.46875 431.65625 C 667.777344 431.675781 668.085938 431.679688 668.394531 431.652344 C 669.09375 431.585938 669.566406 431.804688 670.085938 432.375 C 671.234375 433.632812 672.792969 433.84375 674.417969 433.570312 C 674.621094 433.535156 674.800781 433.351562 675.171875 433.125 Z M 675.171875 433.125 " fill-opacity="1" fill-rule="nonzero"/><path fill="#ffffff" d="M 664.394531 433.183594 C 664.550781 433.203125 664.640625 433.222656 664.738281 433.226562 C 665.710938 433.253906 666.195312 433.769531 666.195312 434.773438 C 666.195312 435.320312 666.195312 435.863281 666.195312 436.464844 C 665.839844 436.480469 665.558594 436.503906 665.28125 436.503906 C 663.144531 436.507812 661.007812 436.507812 658.871094 436.507812 C 658.234375 436.507812 657.914062 436.175781 657.914062 435.515625 C 657.914062 434.964844 657.933594 434.414062 657.910156 433.867188 C 657.886719 433.390625 658.082031 433.21875 658.539062 433.253906 C 658.90625 433.28125 659.28125 433.257812 659.699219 433.257812 L 659.699219 426.679688 L 657.976562 426.679688 L 657.976562 423.476562 L 666.191406 423.476562 C 666.191406 424.441406 666.207031 425.367188 666.167969 426.289062 C 666.164062 426.421875 665.886719 426.632812 665.71875 426.65625 C 665.300781 426.710938 664.871094 426.675781 664.394531 426.675781 Z M 664.394531 433.183594 " fill-opacity="1" fill-rule="nonzero"/><path fill="#ffffff" d="M 679.535156 421.148438 C 679.625 421.496094 679.703125 421.78125 679.78125 422.070312 C 678.992188 422.414062 679.085938 421.6875 678.847656 421.40625 C 677.761719 421.542969 676.574219 421.433594 675.644531 421.875 C 674.769531 422.292969 674.222656 421.671875 673.503906 421.710938 C 672.742188 421.75 671.964844 421.503906 671.160156 421.378906 C 670.84375 421.570312 670.980469 422.425781 670.175781 422.082031 C 670.25 421.773438 670.324219 421.464844 670.402344 421.136719 C 669.667969 420.824219 668.949219 420.519531 668.257812 420.226562 C 667.347656 420.613281 667.4375 422.101562 666.273438 422.179688 L 666.085938 422.011719 C 666.5625 421.292969 667.042969 420.574219 667.539062 419.824219 C 667.113281 419.535156 666.683594 419.246094 666.121094 418.863281 C 665.265625 419.832031 664.414062 420.816406 663.535156 421.769531 C 663.335938 421.984375 663.039062 422.105469 662.699219 422.125 C 665.140625 418.183594 668.644531 415.855469 673.195312 415.296875 C 679.578125 414.515625 684.828125 417.882812 687.324219 422.042969 C 686.855469 422.394531 686.628906 422.054688 686.359375 421.742188 C 685.53125 420.773438 684.683594 419.820312 683.835938 418.859375 C 683.269531 419.246094 682.84375 419.535156 682.410156 419.828125 C 682.902344 420.566406 683.371094 421.269531 683.839844 421.972656 C 683.792969 422.050781 683.75 422.125 683.707031 422.199219 C 683.476562 422.105469 683.183594 422.066406 683.035156 421.898438 C 682.570312 421.371094 682.242188 420.464844 681.699219 420.324219 C 681.148438 420.183594 680.410156 420.769531 679.753906 421.039062 C 679.691406 421.0625 679.628906 421.101562 679.539062 421.148438 Z M 671.296875 420.496094 C 671.351562 420.585938 671.40625 420.675781 671.460938 420.765625 C 672.496094 420.914062 673.53125 421.058594 674.648438 421.21875 C 674.648438 420.234375 674.59375 419.398438 674.664062 418.574219 C 674.722656 417.910156 674.429688 417.703125 673.867188 417.761719 C 673.628906 417.785156 673.324219 417.875 673.1875 418.046875 C 672.53125 418.84375 671.925781 419.675781 671.300781 420.496094 Z M 675.332031 421.234375 C 676.453125 421.058594 677.484375 420.898438 678.734375 420.707031 C 678.101562 419.800781 677.609375 419.054688 677.082031 418.335938 C 676.628906 417.722656 676.03125 417.589844 675.332031 417.914062 Z M 671.914062 416.183594 C 673.308594 417.441406 676.617188 417.464844 678 416.199219 C 675.976562 415.726562 673.996094 415.753906 671.914062 416.183594 Z M 670.59375 420.46875 C 671.332031 419.386719 672.003906 418.402344 672.75 417.308594 C 671 417.460938 669.890625 418.554688 668.632812 419.667969 C 669.382812 419.972656 670.003906 420.226562 670.59375 420.46875 Z M 677.179688 417.265625 C 677.976562 418.441406 678.644531 419.429688 679.347656 420.472656 C 679.949219 420.222656 680.585938 419.960938 681.3125 419.660156 C 680.074219 418.519531 678.925781 417.523438 677.179688 417.265625 Z M 671.484375 416.609375 C 671.097656 416.609375 670.742188 416.539062 670.429688 416.625 C 669.914062 416.769531 669.402344 416.980469 668.921875 417.226562 C 668.207031 417.597656 667.523438 418.027344 666.746094 418.476562 C 667.160156 418.753906 667.410156 418.980469 667.707031 419.109375 C 667.875 419.179688 668.160156 419.164062 668.300781 419.058594 C 669.320312 418.304688 670.3125 417.519531 671.484375 416.609375 Z M 683.152344 418.511719 C 681.914062 417.570312 680.617188 416.953125 679.238281 416.519531 C 679.027344 416.453125 678.742188 416.640625 678.492188 416.707031 C 679.6875 417.570312 680.816406 418.382812 682.015625 419.246094 C 682.308594 419.054688 682.695312 418.804688 683.152344 418.511719 Z M 683.152344 418.511719 " fill-opacity="1" fill-rule="nonzero"/><path fill="#ffffff" d="M 678.792969 438.679688 C 679.101562 438.429688 678.929688 437.679688 679.746094 437.890625 C 679.671875 438.230469 679.597656 438.558594 679.511719 438.953125 C 680.222656 439.25 680.953125 439.550781 681.601562 439.820312 C 682.535156 439.351562 682.582031 438.054688 683.613281 437.792969 C 683.691406 437.855469 683.769531 437.917969 683.847656 437.980469 C 683.359375 438.730469 682.867188 439.484375 682.382812 440.230469 C 682.410156 440.277344 682.429688 440.332031 682.464844 440.355469 C 683.757812 441.183594 683.773438 441.195312 684.859375 440.058594 C 685.402344 439.492188 685.863281 438.851562 686.390625 438.273438 C 686.597656 438.050781 686.894531 437.910156 687.195312 437.796875 C 686.71875 440.527344 680.792969 444.332031 676.742188 444.757812 C 669.761719 445.492188 664.507812 441.449219 662.65625 437.929688 C 662.6875 437.871094 662.722656 437.808594 662.753906 437.75 C 663.007812 437.90625 663.316406 438.011719 663.511719 438.222656 C 664.246094 439 664.953125 439.804688 665.652344 440.613281 C 666.039062 441.0625 666.417969 441.179688 666.890625 440.730469 C 667.089844 440.539062 667.347656 440.410156 667.585938 440.25 C 667.070312 439.472656 666.585938 438.730469 666.097656 437.992188 C 666.160156 437.917969 666.222656 437.84375 666.285156 437.769531 C 666.511719 437.894531 666.796875 437.96875 666.953125 438.152344 C 667.316406 438.589844 667.589844 439.101562 667.960938 439.53125 C 668.085938 439.675781 668.414062 439.78125 668.589844 439.722656 C 669.210938 439.511719 669.808594 439.21875 670.449219 438.949219 C 670.355469 438.609375 670.261719 438.273438 670.160156 437.910156 C 670.996094 437.625 670.863281 438.429688 671.136719 438.679688 C 672.140625 438.558594 673.179688 438.605469 674.082031 438.273438 C 674.769531 438.023438 675.226562 438.074219 675.882812 438.28125 C 676.789062 438.566406 677.789062 438.558594 678.792969 438.679688 Z M 674.59375 442.175781 L 674.59375 438.890625 C 673.511719 439.042969 672.5 439.1875 671.226562 439.363281 C 671.917969 440.308594 672.460938 441.09375 673.050781 441.84375 C 673.4375 442.332031 673.949219 442.523438 674.59375 442.175781 Z M 678.605469 439.554688 C 678.542969 439.472656 678.484375 439.394531 678.425781 439.316406 C 677.410156 439.175781 676.394531 439.039062 675.34375 438.894531 L 675.34375 442.164062 C 675.90625 442.457031 676.410156 442.425781 676.785156 441.957031 C 677.414062 441.171875 678 440.355469 678.605469 439.554688 Z M 668.710938 440.375 C 669.734375 441.460938 670.855469 442.160156 672.097656 442.65625 C 672.292969 442.734375 672.546875 442.667969 672.738281 442.667969 C 672.023438 441.625 671.355469 440.652344 670.644531 439.613281 C 670.085938 439.835938 669.457031 440.082031 668.710938 440.375 Z M 681.164062 440.355469 C 680.503906 440.089844 679.863281 439.835938 679.308594 439.613281 C 678.570312 440.683594 677.890625 441.671875 677.222656 442.636719 C 677.972656 442.863281 680.1875 441.644531 681.164062 440.355469 Z M 671.910156 443.789062 C 673.769531 444.320312 676.96875 444.269531 677.890625 443.714844 C 675.910156 442.640625 673.972656 442.664062 671.910156 443.789062 Z M 683.074219 441.761719 C 683.050781 441.667969 683.03125 441.574219 683.007812 441.480469 C 682.710938 441.289062 682.429688 441.070312 682.113281 440.917969 C 681.984375 440.855469 681.746094 440.863281 681.628906 440.949219 C 680.578125 441.722656 679.539062 442.523438 678.441406 443.359375 C 678.691406 443.40625 679.023438 443.585938 679.238281 443.496094 C 680.53125 442.953125 681.796875 442.347656 683.074219 441.761719 Z M 667.96875 440.808594 C 667.671875 441.007812 667.289062 441.261719 666.90625 441.515625 C 666.898438 441.605469 666.890625 441.695312 666.882812 441.785156 C 668.171875 442.363281 669.449219 442.960938 670.753906 443.5 C 670.953125 443.582031 671.265625 443.382812 671.515625 443.316406 C 670.316406 442.46875 669.195312 441.675781 667.96875 440.808594 Z M 667.96875 440.808594 " fill-opacity="1" fill-rule="nonzero"/><path fill="#ffffff" d="M 669.203125 448.660156 C 669.269531 448.265625 669.289062 447.878906 669.402344 447.523438 C 669.613281 446.871094 670.066406 446.5 670.773438 446.488281 C 671.460938 446.476562 672.050781 446.753906 672.171875 447.441406 C 672.308594 448.214844 672.347656 449.042969 672.234375 449.820312 C 672.140625 450.511719 671.550781 450.894531 670.84375 450.902344 C 670.167969 450.910156 669.671875 450.53125 669.4375 449.90625 C 669.292969 449.515625 669.277344 449.074219 669.203125 448.65625 Z M 671.484375 448.644531 C 671.433594 448.28125 671.4375 447.910156 671.320312 447.582031 C 671.257812 447.414062 670.988281 447.214844 670.8125 447.214844 C 670.648438 447.214844 670.351562 447.457031 670.34375 447.601562 C 670.296875 448.324219 670.300781 449.054688 670.355469 449.777344 C 670.367188 449.929688 670.671875 450.171875 670.835938 450.167969 C 671.003906 450.164062 671.257812 449.9375 671.316406 449.757812 C 671.429688 449.402344 671.433594 449.011719 671.484375 448.644531 Z M 671.484375 448.644531 " fill-opacity="1" fill-rule="nonzero"/><path fill="#ffffff" d="M 684.789062 448.785156 C 684.710938 449.183594 684.683594 449.621094 684.53125 450.011719 C 684.289062 450.621094 683.769531 450.925781 683.128906 450.90625 C 682.523438 450.882812 681.953125 450.589844 681.832031 449.984375 C 681.683594 449.234375 681.640625 448.429688 681.726562 447.667969 C 681.8125 446.882812 682.371094 446.5 683.09375 446.480469 C 683.824219 446.460938 684.351562 446.820312 684.582031 447.558594 C 684.699219 447.941406 684.71875 448.351562 684.789062 448.785156 Z M 683.816406 448.59375 C 683.777344 448.316406 683.789062 447.945312 683.667969 447.625 C 683.59375 447.4375 683.320312 447.234375 683.121094 447.222656 C 682.976562 447.210938 682.683594 447.480469 682.671875 447.640625 C 682.617188 448.320312 682.605469 449.007812 682.664062 449.683594 C 682.679688 449.867188 683.019531 450.191406 683.144531 450.160156 C 683.367188 450.113281 683.621094 449.871094 683.703125 449.648438 C 683.816406 449.351562 683.78125 448.996094 683.816406 448.59375 Z M 683.816406 448.59375 " fill-opacity="1" fill-rule="nonzero"/><path fill="#ffffff" d="M 665.78125 448.628906 C 665.816406 448.296875 665.8125 447.960938 665.886719 447.636719 C 666.050781 446.933594 666.5 446.53125 667.234375 446.484375 C 667.964844 446.4375 668.550781 446.773438 668.707031 447.457031 C 668.871094 448.175781 668.902344 448.964844 668.800781 449.699219 C 668.691406 450.503906 668.011719 450.949219 667.285156 450.914062 C 666.558594 450.878906 665.945312 450.285156 665.839844 449.484375 C 665.800781 449.203125 665.832031 448.914062 665.832031 448.628906 C 665.816406 448.628906 665.800781 448.628906 665.78125 448.625 Z M 668.015625 448.714844 C 667.957031 448.324219 667.949219 447.9375 667.832031 447.589844 C 667.773438 447.417969 667.503906 447.214844 667.335938 447.21875 C 667.164062 447.226562 666.867188 447.460938 666.859375 447.609375 C 666.8125 448.332031 666.816406 449.066406 666.875 449.789062 C 666.886719 449.9375 667.179688 450.148438 667.367188 450.171875 C 667.503906 450.191406 667.753906 449.976562 667.808594 449.8125 C 667.929688 449.460938 667.953125 449.082031 668.015625 448.714844 Z M 668.015625 448.714844 " fill-opacity="1" fill-rule="nonzero"/><path fill="#ffffff" d="M 679.539062 450.121094 C 679.960938 450.121094 680.382812 450.082031 680.792969 450.136719 C 680.972656 450.160156 681.125 450.375 681.292969 450.507812 C 681.128906 450.640625 680.972656 450.882812 680.800781 450.894531 C 680.140625 450.9375 679.476562 450.9375 678.8125 450.90625 C 678.25 450.878906 678.035156 450.488281 678.371094 450.03125 C 678.6875 449.597656 679.121094 449.25 679.5 448.859375 C 679.746094 448.605469 680.0625 448.378906 680.191406 448.074219 C 680.28125 447.863281 680.101562 447.535156 680.042969 447.257812 C 679.753906 447.335938 679.464844 447.410156 679.179688 447.496094 C 679.152344 447.503906 679.144531 447.582031 679.121094 447.621094 C 678.960938 447.890625 678.847656 448.371094 678.445312 448.042969 C 678.289062 447.917969 678.308594 447.375 678.441406 447.128906 C 678.777344 446.5 679.433594 446.339844 680.042969 446.511719 C 680.464844 446.632812 680.921875 446.980469 681.140625 447.359375 C 681.46875 447.921875 681.140625 448.464844 680.703125 448.882812 C 680.3125 449.257812 679.890625 449.597656 679.480469 449.957031 C 679.503906 450.011719 679.523438 450.0625 679.539062 450.117188 Z M 679.539062 450.121094 " fill-opacity="1" fill-rule="nonzero"/><path fill="#ffffff" d="M 660.054688 450.121094 C 660.671875 450.121094 661.101562 450.089844 661.523438 450.136719 C 661.6875 450.152344 661.832031 450.339844 661.988281 450.453125 C 661.839844 450.605469 661.703125 450.878906 661.546875 450.890625 C 660.835938 450.9375 660.121094 450.949219 659.414062 450.894531 C 658.890625 450.855469 658.738281 450.390625 659.113281 449.949219 C 659.492188 449.5 659.953125 449.109375 660.378906 448.695312 C 660.511719 448.566406 660.75 448.453125 660.769531 448.304688 C 660.824219 447.96875 660.910156 447.464844 660.734375 447.3125 C 660.367188 446.988281 660.027344 447.234375 659.78125 447.65625 C 659.660156 447.863281 659.363281 447.964844 659.144531 448.117188 C 659.113281 447.816406 658.972656 447.472656 659.070312 447.222656 C 659.367188 446.476562 660.59375 446.226562 661.378906 446.699219 C 662.011719 447.078125 662.152344 447.949219 661.597656 448.628906 C 661.1875 449.132812 660.660156 449.542969 660.054688 450.121094 Z M 660.054688 450.121094 " fill-opacity="1" fill-rule="nonzero"/><path fill="#ffffff" d="M 691.132812 448.4375 C 691.890625 449.265625 691.890625 449.980469 691.167969 450.542969 C 690.394531 451.148438 689.289062 451.003906 688.820312 450.183594 C 688.699219 449.96875 688.679688 449.496094 688.816406 449.375 C 689.132812 449.089844 689.296875 449.445312 689.511719 449.6875 C 689.707031 449.910156 690.046875 450.101562 690.332031 450.113281 C 690.464844 450.117188 690.714844 449.671875 690.734375 449.417969 C 690.769531 448.949219 690.386719 448.886719 690.003906 448.84375 C 689.808594 448.824219 689.632812 448.652344 689.445312 448.546875 C 689.613281 448.421875 689.78125 448.292969 689.949219 448.171875 C 690.164062 448.019531 690.414062 447.902344 690.574219 447.707031 C 690.621094 447.65625 690.367188 447.226562 690.308594 447.238281 C 690.046875 447.292969 689.808594 447.460938 689.550781 447.566406 C 689.339844 447.652344 689.113281 447.707031 688.898438 447.777344 C 688.894531 447.542969 688.804688 447.257812 688.90625 447.089844 C 689.335938 446.386719 690.578125 446.261719 691.183594 446.820312 C 691.644531 447.246094 691.636719 447.644531 691.136719 448.4375 Z M 691.132812 448.4375 " fill-opacity="1" fill-rule="nonzero"/><path fill="#ffffff" d="M 664.394531 447.265625 C 663.835938 447.265625 663.40625 447.304688 662.992188 447.246094 C 662.816406 447.222656 662.660156 446.996094 662.5 446.863281 C 662.660156 446.738281 662.816406 446.507812 662.984375 446.496094 C 663.667969 446.457031 664.355469 446.460938 665.039062 446.488281 C 665.605469 446.515625 665.6875 446.878906 665.382812 447.261719 C 664.671875 448.160156 664.257812 449.160156 664.085938 450.292969 C 664.050781 450.519531 663.71875 450.699219 663.523438 450.902344 C 663.390625 450.632812 663.089844 450.3125 663.152344 450.105469 C 663.394531 449.320312 663.75 448.570312 664.074219 447.8125 C 664.136719 447.664062 664.234375 447.53125 664.394531 447.265625 Z M 664.394531 447.265625 " fill-opacity="1" fill-rule="nonzero"/><path fill="#ffffff" d="M 674.152344 448.003906 C 673.84375 448.148438 673.625 448.300781 673.386719 448.34375 C 673.246094 448.371094 672.996094 448.257812 672.941406 448.140625 C 672.890625 448.035156 673 447.789062 673.109375 447.683594 C 673.507812 447.324219 673.925781 446.988281 674.355469 446.664062 C 674.472656 446.574219 674.691406 446.480469 674.789062 446.53125 C 674.925781 446.597656 675.0625 446.808594 675.066406 446.957031 C 675.089844 448.078125 675.101562 449.203125 675.058594 450.324219 C 675.046875 450.523438 674.757812 450.710938 674.59375 450.90625 C 674.445312 450.695312 674.1875 450.492188 674.171875 450.269531 C 674.117188 449.539062 674.152344 448.804688 674.152344 448.003906 Z M 674.152344 448.003906 " fill-opacity="1" fill-rule="nonzero"/><path fill="#ffffff" d="M 686.484375 448.1875 C 686.023438 448.1875 685.390625 448.320312 685.3125 448.164062 C 685.023438 447.589844 685.738281 447.667969 685.972656 447.40625 C 686.175781 447.175781 686.390625 446.953125 686.628906 446.765625 C 686.78125 446.648438 687.027344 446.503906 687.160156 446.558594 C 687.296875 446.613281 687.414062 446.886719 687.417969 447.066406 C 687.441406 448.136719 687.453125 449.210938 687.40625 450.277344 C 687.398438 450.492188 687.121094 450.691406 686.96875 450.898438 C 686.804688 450.695312 686.523438 450.507812 686.507812 450.292969 C 686.449219 449.558594 686.484375 448.820312 686.484375 448.1875 Z M 686.484375 448.1875 " fill-opacity="1" fill-rule="nonzero"/><path fill="#ffffff" d="M 677.625 450.351562 C 677.34375 450.597656 677.167969 450.871094 676.992188 450.871094 C 676.8125 450.871094 676.476562 450.574219 676.496094 450.445312 C 676.527344 450.234375 676.75 449.953125 676.949219 449.890625 C 677.085938 449.847656 677.320312 450.128906 677.625 450.347656 Z M 677.625 450.351562 " fill-opacity="1" fill-rule="nonzero"/><path fill="#ffffff" d="M 677.644531 448.097656 C 677.289062 448.277344 677.078125 448.472656 676.882812 448.457031 C 676.730469 448.445312 676.597656 448.175781 676.453125 448.023438 C 676.636719 447.886719 676.808594 447.664062 677 447.644531 C 677.152344 447.628906 677.332031 447.863281 677.644531 448.097656 Z M 677.644531 448.097656 " fill-opacity="1" fill-rule="nonzero"/><path fill="#ffffff" d="M 700.761719 433.660156 C 700.789062 448.039062 689.175781 459.734375 674.847656 459.753906 C 660.539062 459.773438 648.859375 448.035156 648.917969 433.566406 C 648.976562 419.101562 660.476562 407.546875 674.769531 407.503906 C 689.300781 407.457031 700.804688 419.328125 700.765625 433.660156 Z M 674.851562 408 C 660.6875 408.007812 649.355469 419.460938 649.40625 433.808594 C 649.457031 447.792969 660.796875 459.425781 675.164062 459.273438 C 689.152344 459.121094 700.386719 447.519531 700.296875 433.386719 C 700.203125 419.429688 688.816406 407.988281 674.851562 408 Z M 674.851562 408 " fill-opacity="1" fill-rule="nonzero"/></svg>
