<svg xmlns="http://www.w3.org/2000/svg" xmlns:xlink="http://www.w3.org/1999/xlink" width="1680" zoomAndPan="magnify"
     viewBox="0 0 1260 708.749996" height="945" preserveAspectRatio="xMidYMid meet" version="1.0">
  <defs>
    <clipPath id="572b4cbb5c">
      <path d="M 663.492188 632 L 691.984375 632 L 691.984375 655.90625 L 663.492188 655.90625 Z M 663.492188 632 "
            clip-rule="nonzero"/>
    </clipPath>
    <clipPath id="48680ac002">
      <path d="M 660.078125 554.609375 L 686.320312 554.609375 L 686.320312 580.847656 L 660.078125 580.847656 Z M 660.078125 554.609375 "
            clip-rule="nonzero"/>
    </clipPath>
    <clipPath id="b95ad49d31">
      <path d="M 667.039062 517.640625 L 679.785156 517.640625 L 679.785156 543.882812 L 667.039062 543.882812 Z M 667.039062 517.640625 "
            clip-rule="nonzero"/>
    </clipPath>
  </defs>
  <g clip-path="url(#572b4cbb5c)">
    <path fill="#ffffff"
          d="M 689.082031 638.296875 C 689.097656 638.546875 689.097656 638.800781 689.097656 639.050781 C 689.097656 646.769531 683.222656 655.667969 672.480469 655.667969 L 672.480469 655.664062 C 669.308594 655.667969 666.199219 654.761719 663.53125 653.046875 C 663.992188 653.101562 664.453125 653.128906 664.917969 653.128906 C 667.550781 653.132812 670.105469 652.25 672.171875 650.625 C 669.671875 650.578125 667.480469 648.949219 666.714844 646.570312 C 667.59375 646.738281 668.492188 646.703125 669.351562 646.46875 C 666.628906 645.917969 664.667969 643.523438 664.667969 640.746094 C 664.667969 640.71875 664.667969 640.695312 664.667969 640.671875 C 665.480469 641.121094 666.390625 641.375 667.320312 641.402344 C 664.753906 639.6875 663.960938 636.273438 665.511719 633.605469 C 668.476562 637.253906 672.851562 639.472656 677.546875 639.707031 C 677.078125 637.675781 677.71875 635.550781 679.238281 634.125 C 681.589844 631.914062 685.289062 632.027344 687.5 634.378906 C 688.808594 634.121094 690.0625 633.640625 691.207031 632.960938 C 690.773438 634.3125 689.859375 635.460938 688.640625 636.191406 C 689.800781 636.054688 690.929688 635.746094 691.996094 635.273438 C 691.210938 636.445312 690.222656 637.46875 689.082031 638.296875 Z M 689.082031 638.296875 "
          fill-opacity="1" fill-rule="nonzero"/>
  </g>
  <g clip-path="url(#48680ac002)">
    <path fill="#ffffff"
          d="M 673.269531 556.988281 C 676.792969 556.988281 677.207031 557 678.601562 557.0625 C 679.886719 557.121094 680.585938 557.335938 681.054688 557.519531 C 681.667969 557.757812 682.105469 558.046875 682.570312 558.507812 C 683.03125 558.972656 683.316406 559.410156 683.558594 560.023438 C 683.738281 560.484375 683.953125 561.1875 684.015625 562.476562 C 684.078125 563.867188 684.089844 564.285156 684.089844 567.808594 C 684.089844 571.328125 684.078125 571.746094 684.015625 573.140625 C 683.957031 574.421875 683.742188 575.121094 683.558594 575.589844 C 683.320312 576.203125 683.03125 576.644531 682.570312 577.105469 C 682.105469 577.570312 681.667969 577.851562 681.054688 578.09375 C 680.59375 578.273438 679.890625 578.488281 678.601562 578.550781 C 677.207031 578.613281 676.792969 578.625 673.269531 578.625 C 669.75 578.625 669.332031 578.613281 667.9375 578.550781 C 666.65625 578.492188 665.957031 578.28125 665.488281 578.09375 C 664.875 577.859375 664.433594 577.570312 663.972656 577.105469 C 663.507812 576.644531 663.226562 576.203125 662.984375 575.589844 C 662.804688 575.128906 662.589844 574.429688 662.527344 573.140625 C 662.460938 571.746094 662.449219 571.328125 662.449219 567.808594 C 662.449219 564.285156 662.460938 563.867188 662.527344 562.476562 C 662.585938 561.191406 662.796875 560.492188 662.984375 560.023438 C 663.21875 559.410156 663.507812 558.972656 663.972656 558.507812 C 664.433594 558.046875 664.875 557.761719 665.488281 557.519531 C 665.949219 557.339844 666.648438 557.125 667.9375 557.0625 C 669.332031 557 669.75 556.988281 673.269531 556.988281 M 673.269531 554.609375 C 669.683594 554.609375 669.238281 554.628906 667.828125 554.691406 C 666.425781 554.753906 665.464844 554.980469 664.625 555.304688 C 663.757812 555.640625 663.023438 556.089844 662.289062 556.824219 C 661.558594 557.558594 661.109375 558.292969 660.773438 559.160156 C 660.449219 560 660.226562 560.960938 660.160156 562.367188 C 660.097656 563.769531 660.078125 564.222656 660.078125 567.800781 C 660.078125 571.386719 660.097656 571.832031 660.160156 573.242188 C 660.226562 574.648438 660.449219 575.609375 660.773438 576.445312 C 661.109375 577.3125 661.558594 578.046875 662.292969 578.78125 C 663.03125 579.515625 663.765625 579.96875 664.632812 580.304688 C 665.46875 580.628906 666.429688 580.851562 667.835938 580.917969 C 669.238281 580.980469 669.691406 580.996094 673.277344 580.996094 C 676.863281 580.996094 677.308594 580.980469 678.71875 580.917969 C 680.125 580.851562 681.082031 580.628906 681.921875 580.304688 C 682.789062 579.96875 683.523438 579.515625 684.257812 578.78125 C 684.992188 578.046875 685.445312 577.3125 685.777344 576.445312 C 686.101562 575.609375 686.328125 574.648438 686.390625 573.242188 C 686.457031 571.835938 686.472656 571.386719 686.472656 567.800781 C 686.472656 564.214844 686.457031 563.769531 686.390625 562.359375 C 686.328125 560.953125 686.101562 559.996094 685.777344 559.15625 C 685.445312 558.289062 684.992188 557.554688 684.257812 556.820312 C 683.523438 556.085938 682.789062 555.632812 681.921875 555.296875 C 681.082031 554.976562 680.125 554.75 678.71875 554.6875 C 677.308594 554.628906 676.855469 554.609375 673.269531 554.609375 "
          fill-opacity="1" fill-rule="nonzero"/>
  </g>
  <path fill="#ffffff"
        d="M 673.269531 561.03125 C 669.527344 561.03125 666.5 564.058594 666.5 567.800781 C 666.5 571.542969 669.535156 574.578125 673.277344 574.578125 C 677.019531 574.578125 680.054688 571.546875 680.054688 567.800781 C 680.046875 564.058594 677.011719 561.03125 673.269531 561.03125 M 673.269531 572.203125 C 670.84375 572.203125 668.875 570.234375 668.875 567.808594 C 668.875 565.378906 670.84375 563.410156 673.269531 563.410156 C 675.699219 563.410156 677.664062 565.378906 677.664062 567.808594 C 677.671875 570.230469 675.699219 572.203125 673.269531 572.203125 "
        fill-opacity="1" fill-rule="nonzero"/>
  <path fill="#ffffff"
        d="M 681.898438 560.761719 C 681.898438 561.636719 681.1875 562.347656 680.3125 562.347656 C 679.441406 562.347656 678.730469 561.636719 678.730469 560.761719 C 678.730469 559.890625 679.441406 559.179688 680.3125 559.179688 C 681.1875 559.179688 681.898438 559.882812 681.898438 560.761719 "
        fill-opacity="1" fill-rule="nonzero"/>
  <g clip-path="url(#b95ad49d31)">
    <path fill="#ffffff"
          d="M 676.847656 521.988281 L 679.789062 521.988281 L 679.789062 517.675781 L 676.03125 517.675781 L 676.03125 517.691406 C 671.09375 517.863281 670.082031 520.558594 669.992188 523.402344 L 669.980469 523.402344 L 669.980469 526.398438 L 667.042969 526.398438 L 667.042969 530.714844 L 669.980469 530.714844 L 669.980469 543.847656 L 675.257812 543.847656 L 675.257812 530.714844 L 679.042969 530.714844 L 679.789062 526.398438 L 675.257812 526.398438 L 675.257812 523.71875 C 675.257812 522.765625 675.914062 521.988281 676.847656 521.988281 Z M 676.847656 521.988281 "
          fill-opacity="1" fill-rule="nonzero"/>
  </g>
  <path fill="#ffffff"
        d="M 689.285156 604.179688 C 689.226562 602.5 687.820312 601.191406 686.144531 601.246094 C 685.402344 601.273438 684.695312 601.578125 684.160156 602.089844 C 681.796875 600.472656 679.023438 599.589844 676.171875 599.527344 L 677.515625 593.019531 L 681.957031 593.960938 C 682.082031 595.105469 683.101562 595.933594 684.242188 595.808594 C 685.382812 595.683594 686.207031 594.660156 686.082031 593.511719 C 685.960938 592.367188 684.9375 591.539062 683.800781 591.664062 C 683.144531 591.730469 682.554688 592.113281 682.230469 592.683594 L 677.144531 591.664062 C 676.800781 591.585938 676.453125 591.800781 676.375 592.15625 C 676.375 592.160156 676.375 592.160156 676.375 592.164062 L 674.84375 599.402344 C 671.957031 599.449219 669.144531 600.339844 666.753906 601.96875 C 665.535156 600.816406 663.617188 600.875 662.472656 602.101562 C 661.324219 603.324219 661.382812 605.253906 662.605469 606.402344 C 662.84375 606.628906 663.117188 606.820312 663.421875 606.953125 C 663.398438 607.257812 663.398438 607.566406 663.421875 607.871094 C 663.421875 612.542969 668.835938 616.339844 675.515625 616.339844 C 682.195312 616.339844 687.609375 612.546875 687.609375 607.871094 C 687.632812 607.566406 687.632812 607.257812 687.609375 606.953125 C 688.652344 606.429688 689.308594 605.351562 689.285156 604.179688 Z M 668.535156 606.269531 C 668.535156 605.117188 669.46875 604.179688 670.617188 604.179688 C 671.761719 604.179688 672.695312 605.117188 672.695312 606.269531 C 672.695312 607.421875 671.761719 608.359375 670.617188 608.359375 C 669.464844 608.347656 668.535156 607.421875 668.535156 606.269531 Z M 680.589844 612.003906 C 679.117188 613.117188 677.308594 613.6875 675.464844 613.609375 C 673.617188 613.6875 671.8125 613.117188 670.335938 612.003906 C 670.140625 611.765625 670.175781 611.40625 670.414062 611.210938 C 670.621094 611.039062 670.914062 611.039062 671.125 611.210938 C 672.375 612.125 673.894531 612.59375 675.441406 612.519531 C 676.992188 612.605469 678.515625 612.15625 679.78125 611.25 C 680.007812 611.027344 680.378906 611.03125 680.601562 611.261719 C 680.824219 611.488281 680.816406 611.863281 680.589844 612.085938 Z M 680.21875 608.429688 C 679.074219 608.429688 678.140625 607.492188 678.140625 606.34375 C 678.140625 605.191406 679.074219 604.253906 680.21875 604.253906 C 681.363281 604.253906 682.296875 605.191406 682.296875 606.34375 C 682.34375 607.492188 681.453125 608.460938 680.308594 608.507812 C 680.269531 608.507812 680.238281 608.507812 680.203125 608.507812 Z M 680.21875 608.429688 "
        fill-opacity="1" fill-rule="nonzero"/>
</svg>
