<?xml version="1.0" encoding="UTF-8"?>
<svg id="Layer_1" data-name="Layer 1" xmlns="http://www.w3.org/2000/svg" xmlns:xlink="http://www.w3.org/1999/xlink" viewBox="0 0 2259.63 2079.4">
  <defs>
    <style>
      .cls-1 {
        clip-path: url(#clippath);
      }

      .cls-2, .cls-3 {
        fill: #1e1f4e;
      }

      .cls-3 {
        stroke-width: 0px;
      }
    </style>
    <clipPath id="clippath">
      <path class="cls-3" d="m1484.61,943.65c-67.01,36.62-242.91,38.45-340.31,39.28-21.08.19-39.14.43-52.32.84-76.54,2.75-106.57,35.87-144.98,77.82-34.83,38.01-74.32,81.12-159.12,113.02-62.38,23.61-101.82,2.41-139.72-18.23-27.2-14.31-52.62-28.17-85.76-26.2-87.37,5.55-104.51,55.98-121.17,104.74-8.22,24.32-16.05,47.29-32.1,65.12l-1.58-1.12c15.59-17.58,23.43-40.56,31.56-64.54,16.98-49.21,34.53-100.44,123.06-106.05,33.58-2.21,59.49,11.95,86.82,26.47,37.64,20.21,76.61,41.11,138.08,17.99,84.35-31.65,123.62-74.64,158.22-112.53,37.1-40.67,69.11-75.44,146.45-78.34,13.06-.62,31.25-.65,52.32-.84,104.1-1.1,297.49-3.13,351.41-47.05,11.58-9.45,23.74-18.92,36.43-28.98,57.77-45.45,123.51-96.95,153.47-157.22,3.09-6.22,5.95-12.32,9.04-18.54,25.92-52.68,52.31-107.04,104.08-135.33.67-.37,1.34-.74,2.24-1.23l1.03,1.7c-.67.36-1.34.73-2.02,1.1-51.32,28.05-77.62,82.07-103.09,134.51-3.09,6.22-5.96,12.32-9.05,18.54-30.28,60.73-96.02,112.23-153.89,158.02-12.7,10.05-24.85,19.53-36.43,28.98-4,2.75-8,5.51-12.71,8.07Zm-26.87,11.29c7.27-4.26,14.76-8.63,22.47-13.13,78.27-45.61,166.82-97.4,211.82-178.63,7.3-13.05,14.17-27.29,20.86-40.85,23.15-46.92,47-95.64,92.49-120.5.22-.12.45-.25.67-.36l-1.03-1.7c-.23.12-.45.25-.67.37-46.17,25.23-70.02,73.95-93.26,121.2-6.69,13.57-13.69,27.59-20.86,40.85-44.68,80.77-133.22,132.56-211.04,177.93-7.72,4.5-15.21,8.88-22.47,13.13-1.34.74-2.47,1.35-3.81,2.08-78.22,42.75-286.57,57.49-366.04,63.26l-.93-.06c-73.61,5.11-109.78,36.49-151.32,72.78-37.25,32.54-79.24,69.08-157.71,96.67-57.03,20.12-94.73.8-131.47-17.92-26.94-13.89-52.43-26.86-84.73-24.5-83.84,6.46-99.53,57.79-114.61,107.67-7.1,23.7-14.04,46.19-28.06,62.91l1.58,1.12c14.34-17.19,21.06-39.55,28.38-63.37,14.9-49.2,30.4-99.87,113.21-106.05,31.82-2.66,57.08,10.44,83.89,24.11,36.87,18.93,75.05,38.56,132.98,17.95,78.69-27.71,121-64.71,158.38-97.04,41.32-36.17,77.03-67.31,150.07-72.39l.93.06c79.48-5.77,288.18-20.42,366.85-63.41,1.12-.61,2.47-1.35,3.46-2.17Zm239.25-177.2c10.4-17.3,19.18-36.26,28.13-54.45,21.42-44.84,43.45-91.15,85.9-114.63l-1.03-1.7c-43.12,23.85-65.38,70.28-86.9,115.46-8.59,18.29-17.73,37.16-27.9,54.33-61.82,103.17-174.67,151.81-274.31,194.66l-3.04,1.38c-85.97,37.36-260.13,74.48-337.83,82.68-69.88,7.32-109.88,34.84-155.99,66.56-39.55,27.28-84.45,58.05-157.03,81.57-52.71,16.91-89.16-.83-124.64-17.97-26.64-12.91-51.75-25.25-82.63-22.53-80.21,7.02-94.57,61.03-107.23,109.01-5.85,23.3-11.67,45.18-24.12,61.04l1.58,1.12c12.68-15.99,18.59-38.2,24.67-61.63,13.13-49.66,26.73-100.99,105.56-107.82,30.08-2.56,55.06,9.56,81.57,22.26,35.61,17.35,72.77,35.28,126.15,18,72.8-23.65,117.92-54.53,157.47-81.81,45.89-31.59,85.67-59,154.97-66.28,77.7-8.2,252.09-45.44,338.29-82.92l3.04-1.38c38.82-16.69,79.79-34.26,118.78-55.57,61.54-33.35,118.55-76.12,156.56-139.37Zm4.96,14.56c12.66-19.95,22.94-42.84,32.93-64.72,20.78-45.91,40.44-89.23,80.85-112.15l-1.03-1.7c-18.47,10.38-34.29,26.11-48.55,48.34-12.79,19.73-23.07,42.62-32.93,64.72-9.99,21.89-20.17,44.44-32.83,64.4-73.45,115.47-193.69,160.8-320.97,200.9-33.65,10.46-71.58,24.68-111.56,39.45-70.45,26.04-143.27,53.1-193.23,60.29-65.35,9.38-109.22,32.5-160.03,59.42-41.95,22.36-89.85,47.68-157.11,67.17-48.27,13.92-83.46-2.25-117.68-17.82-26.45-11.6-51.25-22.96-80.63-20.22-76.23,7.67-88.57,62.56-99.46,111-5.08,22.6-10.01,43.98-20.67,58.87l1.58,1.12c11.11-15.13,15.91-36.73,21.21-59.46,10.92-47.88,23.07-102.1,97.92-109.59,28.8-2.71,53.48,8.44,79.61,20.5,34.35,15.77,70.25,32.12,118.96,17.96,67.49-19.61,115.39-44.93,157.56-67.42,50.59-26.8,94.11-50.01,159.23-59.26,49.96-7.2,123-34.37,193.68-60.54,39.98-14.77,77.91-28.98,111.56-39.44,62.17-19.53,122.76-40.18,176.99-69.83,56.67-31.54,106.72-72.49,144.61-131.99Zm4.74,14.69c14.84-22.27,25.96-48.18,36.68-73.29,19.53-45.5,37.82-88.63,76.87-110.83l-1.03-1.7c-39.6,22.77-58.11,66.03-77.73,111.87-10.72,25.11-21.63,50.9-36.59,72.96-90.29,135.44-235.66,177.22-364.58,205.76-53.95,11.93-103.48,39-151.57,65-42.8,23.39-83.28,45.23-120.27,52.14-59.7,10.82-108.77,30.27-160.8,50.78-47.6,18.93-96.91,38.52-160.69,54.4-43.47,11.01-77.17-3.71-109.79-17.6-26.32-11.39-51.19-21.87-79.28-18.97-72.38,8.12-82.57,64.1-91.78,113.31-3.96,21.99-7.9,42.55-17.12,56.37l1.8.99c9.44-13.94,13.12-34.92,17.3-57.03,9.03-48.55,19.38-103.77,90.16-111.57,27.61-3.2,52.25,7.41,78.22,18.71,33.1,14.2,67.03,28.79,111.07,17.75,64.01-16.01,113.31-35.59,160.91-54.52,51.67-20.59,100.75-40.05,160.45-50.86,37.35-6.82,77.92-28.99,120.85-52.17,47.73-26.09,97.4-52.95,150.77-64.84,72.13-15.91,149.43-36.07,219.36-74.28,55.58-30.38,106.63-72.15,146.8-132.34Zm4.74,14.69c16.91-24.26,28.45-52.93,39.58-80.82,18.24-45.65,35.73-88.63,73.5-110.97l-1.03-1.7c-38.45,22.71-55.8,65.89-74.49,111.79-11.25,27.67-22.8,56.36-39.48,80.49-47.42,68.4-108.38,118.42-186.41,153.13-74.08,32.84-153.82,47.53-221.79,57.49-63.04,9.24-106.89,45.67-145.68,77.63-30.41,25.12-59.17,49.05-93.12,56.55-46.74,10.53-91.38,23.04-138.52,36.34-58.07,16.44-117.97,33.32-187.18,47.64-38.66,8.1-70.98-4.82-101.9-17.38-26.38-10.51-51.21-20.44-78.12-17.06-68.4,8.77-77.1,68.19-83.98,115.84-3.1,20.95-5.91,40.9-13.47,53.53l1.67.78c7.65-12.96,10.46-32.91,13.66-54.19,7.36-49.34,15.32-105.52,82.7-114.02,26.33-3.34,51.16,6.59,77.19,17.01,31.49,12.53,63.94,25.66,103.18,17.53,69.21-14.32,129.11-31.19,187.18-47.64,47.14-13.3,91.66-26.02,138.52-36.34,34.17-7.63,63.15-31.68,94.01-57.04,38.57-31.84,82.2-68.14,144.79-77.15,68.2-10.09,148.06-24.56,222.37-57.52,12.75-5.55,24.89-11.62,36.54-17.99,60.7-33.74,110.29-78.4,150.28-135.93Zm4.97,14.56c18.67-25.78,30.49-57.44,41.92-87.77,17.41-46.05,33.84-89.29,71.03-111.6l-.91-1.49c-37.64,22.55-54.39,66.26-71.67,112.52-11.43,30.32-23.38,61.77-41.83,87.43-119.11,165.63-287.57,201.34-451.93,215.27-69.86,5.89-102.61,49.28-131.4,87.39-21.52,28.47-41.63,55.32-74.23,64.07-96.76,25.97-216.19,45.08-329.83,62.44-33.86,5.19-64.22-5.97-93.51-16.86-26.7-10.05-51.95-19.19-77.79-15.54-65,9.46-71.19,70.05-76.14,118.92-2.07,20.67-3.96,38.7-9.85,50.13l1.67.78c5.99-11.77,7.88-29.8,10.04-50.8,5.11-48.11,11.12-108.03,74.73-117.31,25.49-3.73,50.29,5.65,76.86,15.49,29.65,10.98,60.14,22.36,94.58,17.13,113.86-17.48,233.07-36.47,330.05-62.56,33.17-8.78,53.61-36.09,75.34-64.68,28.58-37.99,61.01-80.92,130.06-86.65,101.31-8.64,203.98-25.38,296.09-75.73,56.89-31.66,110.66-76.33,156.71-140.59Zm4.51,14.81c20.43-27.31,32.34-61.29,44.18-94.38,16.57-46.44,32.26-90.41,68.65-112.57l-.91-1.49c-37.07,22.52-52.84,66.83-69.51,113.61-11.75,32.76-23.65,66.74-43.86,93.92-136.08,183.4-318.74,214.41-495.78,220.25-75.87,2.38-96.4,52.12-114.53,96.01-13.29,32.18-25.88,62.57-57.93,72.72-69.09,21.9-171.53,29.17-261.98,35.56-25.5,1.76-49.49,3.54-71.84,5.56-28.58,2.59-56.53-7.06-83.64-16.32-27.72-9.77-53.87-18.42-78.88-14.38-61.46,10.37-65.3,75.33-68.13,122.76-1.12,19.3-2.05,35.95-6.41,45.98l1.9.66c4.45-10.36,5.61-27.14,6.59-46.65,3.05-49.53,6.64-110.96,66.51-121.02,24.65-4.13,50.35,4.77,77.82,14.11,27.12,9.26,55.41,19,84.57,16.37,22.36-2.02,46.47-3.59,71.85-5.56,90.67-6.51,193.34-13.9,262.42-35.8,32.84-10.3,45.63-41.36,59.01-73.88,18.73-45.35,38.28-92.29,112.86-94.81,112.62-3.78,227.75-17.7,331.51-74.41,59.75-32.37,115.58-79.03,165.51-146.24Zm4.96,14.56c21.96-28.71,34.18-65.12,45.89-100.41,15.83-47.17,30.68-91.53,66.72-113.78l-.9-1.49c-36.72,22.62-51.53,67.53-67.59,114.82-11.84,35.07-23.83,71.36-45.57,99.95-68.67,89.93-149.71,150.64-248.33,185.84-79.81,28.32-169.66,40.61-290.84,39.15-81.4-.83-89.44,52.28-97.15,103.5-5.38,36.36-10.55,70.62-42.49,82.41-63.89,23.58-180.8,21.77-274.51,20.32-23.2-.35-44.88-.67-63.66-.61-23.16.2-47.99-7.76-71.99-15.32-29.42-9.13-56.85-17.93-81.7-13.13-58.28,11.18-59.19,78.51-60.06,127.7-.19,17.38-.43,32.23-3.25,40.86l1.76.45c2.92-8.96,3.02-24.03,3.44-41.53.68-48.52,1.88-114.88,58.43-125.96,24.04-4.65,51.7,4.03,80.54,13.19,23.99,7.57,49.05,15.39,72.56,15.29,18.77-.06,40.46.26,63.65.61,94.07,1.55,210.98,3.36,275.32-20.47,32.61-12.16,37.97-47.09,43.67-83.9,7.51-50.55,15.5-102.78,95.16-101.85,121.62,1.21,211.6-10.86,291.64-39.3,26.31-9.28,51.45-20.47,75.43-33.58,66.12-36.13,123.45-86.72,173.8-152.76Zm4.96,14.56c23.5-30.12,35.81-68.84,47.6-106.44,14.87-47.77,29.2-92.99,64.89-115.33l-.91-1.49c-36.23,22.91-50.43,68.34-65.75,116.36-11.7,37.26-23.87,76.2-47.28,105.99-75.77,96.92-163.98,161.55-269.43,196.81-85.81,28.77-185.38,39.29-313.57,33.17-28.94-1.46-49.23,3.97-62.47,16.58-21.77,20.68-19.58,57.71-17.23,93.53,2.43,40.87,4.95,79.42-26.76,93.07-64.54,27.91-220.26,11.34-313.47,1.39-10.49-1.06-20.41-2.15-28.92-2.88-17.14-1.68-36.37-7.31-56.8-13.42-30.93-9.15-62.92-18.58-87.95-13.11-55.78,12.36-53.07,85.64-51.44,134.03.44,14.49.87,26.99-.42,34.21l1.99.32c1.52-7.34.95-20.06.51-34.55-1.59-47.84-4.01-120.15,50.04-132.42,24.46-5.43,56.45,3.99,87.02,13.05,20.43,6.11,39.66,11.74,57.03,13.3,8.63.95,18.42,1.83,28.92,2.89,93.21,9.95,249.51,26.49,314.27-1.55,1.47-.52,2.82-1.25,4.16-1.99,28.46-15.56,26.24-53.14,23.65-92.79-2.09-35.39-4.38-72.09,16.85-92.19,12.69-12.03,32.76-17.33,60.99-16.05,128.54,6.22,228.34-4.43,314.38-33.32,30.53-10.17,59.52-22.9,87.31-38.09,68.26-37.02,128.7-89.88,182.79-159.09Zm-684.62,363.96c-9.13-38.62-18.58-78.77.53-99.41,11.19-12.06,30.7-16.78,60.16-14.47,137.19,11.12,244.41,2.37,337.24-27.13,112.48-35.98,207.89-103.99,291.3-208.48,25.17-31.31,37.2-72.44,48.86-112.23,14.35-48.63,27.72-94.45,63.15-117.21l-1.13-1.37c-35.88,23.01-49.56,69.29-63.79,118.13-11.66,39.79-23.83,80.7-48.54,111.77-83.09,104.04-178.15,172.13-290.53,207.77-92.48,29.59-199.47,38.21-336.44,26.97-30.17-2.49-50.14,2.48-61.64,14.99-19.65,21.22-10.16,61.91-1.01,101.09,10.57,44.92,20.51,87.35-9.3,103.64-.45.25-.9.49-1.34.73-27.41,13.85-86.24,16.26-170.01,7.1-64.28-7.07-134.85-20.04-176.5-30.13-9.06-2.13-19.69-5.38-31.02-8.82-34.23-10.17-77.21-22.94-104.81-15.79-53.46,14.21-45.8,98.1-41.81,143.5,1.03,11.05,1.81,19.69,1.44,24.99l1.86.11c.24-5.51-.54-14.15-1.57-25.2-4.05-44.51-11.55-127.65,40.8-141.24,27.02-7.12,69.64,5.56,103.65,15.86,11.34,3.43,21.97,6.68,31.25,8.69,69.16,16.58,281.47,56.03,347.66,22.97l1.34-.74c31.02-17.24,20.55-62.49,10.19-106.11Zm-17.05,142.99c32.43-18.86,13.15-69.77-5.54-118.75-15.94-41.98-32.43-85.36-14.96-106.24,9.93-11.66,29.26-15.71,59.59-12.46,145.84,16.02,260.25,9.29,359.75-21.02,119.41-36.37,221.54-108.05,312.4-219.44,26.47-32.59,38.6-76.04,50.12-118.02,13.61-49.35,26.46-96.03,61.54-118.88l-.78-1.28c-35.75,23.22-48.7,70.23-62.4,119.91-11.65,41.77-23.55,85.09-49.93,117.35-90.54,110.93-192.45,182.49-311.5,218.95-99.28,30.19-213.47,36.8-358.95,20.87-31.04-3.43-51.04.99-61.29,13.11-18.11,21.79-2.3,63.56,14.71,107.79,18.3,48.34,37.29,98.28,6.33,116.61-33.2,19.56-122.87,8.53-173.21.36-77.14-12.5-148.95-32.45-177.29-44.71-27.15-11.78-93.8-32.57-127.13-22.56-53.9,16.43-37.06,119.38-30.72,157.83.72,4.14,1.41,7.72,1.67,10.13l1.95-.22c-.39-2.62-.95-6-1.67-10.13-6.2-38.24-22.85-139.88,29.35-155.66,29.9-9.26,91.43,7.52,125.62,22.54,59.89,25.89,290.82,77.82,351.11,44.87.32-.46.77-.7,1.22-.95Z"/>
    </clipPath>
  </defs>
  <path class="cls-2" d="m1484.61,943.65c-67.01,36.62-242.91,38.45-340.31,39.28-21.08.19-39.14.43-52.32.84-76.54,2.75-106.57,35.87-144.98,77.82-34.83,38.01-74.32,81.12-159.12,113.02-62.38,23.61-101.82,2.41-139.72-18.23-27.2-14.31-52.62-28.17-85.76-26.2-87.37,5.55-104.51,55.98-121.17,104.74-8.22,24.32-16.05,47.29-32.1,65.12l-1.58-1.12c15.59-17.58,23.43-40.56,31.56-64.54,16.98-49.21,34.53-100.44,123.06-106.05,33.58-2.21,59.49,11.95,86.82,26.47,37.64,20.21,76.61,41.11,138.08,17.99,84.35-31.65,123.62-74.64,158.22-112.53,37.1-40.67,69.11-75.44,146.45-78.34,13.06-.62,31.25-.65,52.32-.84,104.1-1.1,297.49-3.13,351.41-47.05,11.58-9.45,23.74-18.92,36.43-28.98,57.77-45.45,123.51-96.95,153.47-157.22,3.09-6.22,5.95-12.32,9.04-18.54,25.92-52.68,52.31-107.04,104.08-135.33.67-.37,1.34-.74,2.24-1.23l1.03,1.7c-.67.36-1.34.73-2.02,1.1-51.32,28.05-77.62,82.07-103.09,134.51-3.09,6.22-5.96,12.32-9.05,18.54-30.28,60.73-96.02,112.23-153.89,158.02-12.7,10.05-24.85,19.53-36.43,28.98-4,2.75-8,5.51-12.71,8.07Zm-26.87,11.29c7.27-4.26,14.76-8.63,22.47-13.13,78.27-45.61,166.82-97.4,211.82-178.63,7.3-13.05,14.17-27.29,20.86-40.85,23.15-46.92,47-95.64,92.49-120.5.22-.12.45-.25.67-.36l-1.03-1.7c-.23.12-.45.25-.67.37-46.17,25.23-70.02,73.95-93.26,121.2-6.69,13.57-13.69,27.59-20.86,40.85-44.68,80.77-133.22,132.56-211.04,177.93-7.72,4.5-15.21,8.88-22.47,13.13-1.34.74-2.47,1.35-3.81,2.08-78.22,42.75-286.57,57.49-366.04,63.26l-.93-.06c-73.61,5.11-109.78,36.49-151.32,72.78-37.25,32.54-79.24,69.08-157.71,96.67-57.03,20.12-94.73.8-131.47-17.92-26.94-13.89-52.43-26.86-84.73-24.5-83.84,6.46-99.53,57.79-114.61,107.67-7.1,23.7-14.04,46.19-28.06,62.91l1.58,1.12c14.34-17.19,21.06-39.55,28.38-63.37,14.9-49.2,30.4-99.87,113.21-106.05,31.82-2.66,57.08,10.44,83.89,24.11,36.87,18.93,75.05,38.56,132.98,17.95,78.69-27.71,121-64.71,158.38-97.04,41.32-36.17,77.03-67.31,150.07-72.39l.93.06c79.48-5.77,288.18-20.42,366.85-63.41,1.12-.61,2.47-1.35,3.46-2.17Zm239.25-177.2c10.4-17.3,19.18-36.26,28.13-54.45,21.42-44.84,43.45-91.15,85.9-114.63l-1.03-1.7c-43.12,23.85-65.38,70.28-86.9,115.46-8.59,18.29-17.73,37.16-27.9,54.33-61.82,103.17-174.67,151.81-274.31,194.66l-3.04,1.38c-85.97,37.36-260.13,74.48-337.83,82.68-69.88,7.32-109.88,34.84-155.99,66.56-39.55,27.28-84.45,58.05-157.03,81.57-52.71,16.91-89.16-.83-124.64-17.97-26.64-12.91-51.75-25.25-82.63-22.53-80.21,7.02-94.57,61.03-107.23,109.01-5.85,23.3-11.67,45.18-24.12,61.04l1.58,1.12c12.68-15.99,18.59-38.2,24.67-61.63,13.13-49.66,26.73-100.99,105.56-107.82,30.08-2.56,55.06,9.56,81.57,22.26,35.61,17.35,72.77,35.28,126.15,18,72.8-23.65,117.92-54.53,157.47-81.81,45.89-31.59,85.67-59,154.97-66.28,77.7-8.2,252.09-45.44,338.29-82.92l3.04-1.38c38.82-16.69,79.79-34.26,118.78-55.57,61.54-33.35,118.55-76.12,156.56-139.37Zm4.96,14.56c12.66-19.95,22.94-42.84,32.93-64.72,20.78-45.91,40.44-89.23,80.85-112.15l-1.03-1.7c-18.47,10.38-34.29,26.11-48.55,48.34-12.79,19.73-23.07,42.62-32.93,64.72-9.99,21.89-20.17,44.44-32.83,64.4-73.45,115.47-193.69,160.8-320.97,200.9-33.65,10.46-71.58,24.68-111.56,39.45-70.45,26.04-143.27,53.1-193.23,60.29-65.35,9.38-109.22,32.5-160.03,59.42-41.95,22.36-89.85,47.68-157.11,67.17-48.27,13.92-83.46-2.25-117.68-17.82-26.45-11.6-51.25-22.96-80.63-20.22-76.23,7.67-88.57,62.56-99.46,111-5.08,22.6-10.01,43.98-20.67,58.87l1.58,1.12c11.11-15.13,15.91-36.73,21.21-59.46,10.92-47.88,23.07-102.1,97.92-109.59,28.8-2.71,53.48,8.44,79.61,20.5,34.35,15.77,70.25,32.12,118.96,17.96,67.49-19.61,115.39-44.93,157.56-67.42,50.59-26.8,94.11-50.01,159.23-59.26,49.96-7.2,123-34.37,193.68-60.54,39.98-14.77,77.91-28.98,111.56-39.44,62.17-19.53,122.76-40.18,176.99-69.83,56.67-31.54,106.72-72.49,144.61-131.99Zm4.74,14.69c14.84-22.27,25.96-48.18,36.68-73.29,19.53-45.5,37.82-88.63,76.87-110.83l-1.03-1.7c-39.6,22.77-58.11,66.03-77.73,111.87-10.72,25.11-21.63,50.9-36.59,72.96-90.29,135.44-235.66,177.22-364.58,205.76-53.95,11.93-103.48,39-151.57,65-42.8,23.39-83.28,45.23-120.27,52.14-59.7,10.82-108.77,30.27-160.8,50.78-47.6,18.93-96.91,38.52-160.69,54.4-43.47,11.01-77.17-3.71-109.79-17.6-26.32-11.39-51.19-21.87-79.28-18.97-72.38,8.12-82.57,64.1-91.78,113.31-3.96,21.99-7.9,42.55-17.12,56.37l1.8.99c9.44-13.94,13.12-34.92,17.3-57.03,9.03-48.55,19.38-103.77,90.16-111.57,27.61-3.2,52.25,7.41,78.22,18.71,33.1,14.2,67.03,28.79,111.07,17.75,64.01-16.01,113.31-35.59,160.91-54.52,51.67-20.59,100.75-40.05,160.45-50.86,37.35-6.82,77.92-28.99,120.85-52.17,47.73-26.09,97.4-52.95,150.77-64.84,72.13-15.91,149.43-36.07,219.36-74.28,55.58-30.38,106.63-72.15,146.8-132.34Zm4.74,14.69c16.91-24.26,28.45-52.93,39.58-80.82,18.24-45.65,35.73-88.63,73.5-110.97l-1.03-1.7c-38.45,22.71-55.8,65.89-74.49,111.79-11.25,27.67-22.8,56.36-39.48,80.49-47.42,68.4-108.38,118.42-186.41,153.13-74.08,32.84-153.82,47.53-221.79,57.49-63.04,9.24-106.89,45.67-145.68,77.63-30.41,25.12-59.17,49.05-93.12,56.55-46.74,10.53-91.38,23.04-138.52,36.34-58.07,16.44-117.97,33.32-187.18,47.64-38.66,8.1-70.98-4.82-101.9-17.38-26.38-10.51-51.21-20.44-78.12-17.06-68.4,8.77-77.1,68.19-83.98,115.84-3.1,20.95-5.91,40.9-13.47,53.53l1.67.78c7.65-12.96,10.46-32.91,13.66-54.19,7.36-49.34,15.32-105.52,82.7-114.02,26.33-3.34,51.16,6.59,77.19,17.01,31.49,12.53,63.94,25.66,103.18,17.53,69.21-14.32,129.11-31.19,187.18-47.64,47.14-13.3,91.66-26.02,138.52-36.34,34.17-7.63,63.15-31.68,94.01-57.04,38.57-31.84,82.2-68.14,144.79-77.15,68.2-10.09,148.06-24.56,222.37-57.52,12.75-5.55,24.89-11.62,36.54-17.99,60.7-33.74,110.29-78.4,150.28-135.93Zm4.97,14.56c18.67-25.78,30.49-57.44,41.92-87.77,17.41-46.05,33.84-89.29,71.03-111.6l-.91-1.49c-37.64,22.55-54.39,66.26-71.67,112.52-11.43,30.32-23.38,61.77-41.83,87.43-119.11,165.63-287.57,201.34-451.93,215.27-69.86,5.89-102.61,49.28-131.4,87.39-21.52,28.47-41.63,55.32-74.23,64.07-96.76,25.97-216.19,45.08-329.83,62.44-33.86,5.19-64.22-5.97-93.51-16.86-26.7-10.05-51.95-19.19-77.79-15.54-65,9.46-71.19,70.05-76.14,118.92-2.07,20.67-3.96,38.7-9.85,50.13l1.67.78c5.99-11.77,7.88-29.8,10.04-50.8,5.11-48.11,11.12-108.03,74.73-117.31,25.49-3.73,50.29,5.65,76.86,15.49,29.65,10.98,60.14,22.36,94.58,17.13,113.86-17.48,233.07-36.47,330.05-62.56,33.17-8.78,53.61-36.09,75.34-64.68,28.58-37.99,61.01-80.92,130.06-86.65,101.31-8.64,203.98-25.38,296.09-75.73,56.89-31.66,110.66-76.33,156.71-140.59Zm4.51,14.81c20.43-27.31,32.34-61.29,44.18-94.38,16.57-46.44,32.26-90.41,68.65-112.57l-.91-1.49c-37.07,22.52-52.84,66.83-69.51,113.61-11.75,32.76-23.65,66.74-43.86,93.92-136.08,183.4-318.74,214.41-495.78,220.25-75.87,2.38-96.4,52.12-114.53,96.01-13.29,32.18-25.88,62.57-57.93,72.72-69.09,21.9-171.53,29.17-261.98,35.56-25.5,1.76-49.49,3.54-71.84,5.56-28.58,2.59-56.53-7.06-83.64-16.32-27.72-9.77-53.87-18.42-78.88-14.38-61.46,10.37-65.3,75.33-68.13,122.76-1.12,19.3-2.05,35.95-6.41,45.98l1.9.66c4.45-10.36,5.61-27.14,6.59-46.65,3.05-49.53,6.64-110.96,66.51-121.02,24.65-4.13,50.35,4.77,77.82,14.11,27.12,9.26,55.41,19,84.57,16.37,22.36-2.02,46.47-3.59,71.85-5.56,90.67-6.51,193.34-13.9,262.42-35.8,32.84-10.3,45.63-41.36,59.01-73.88,18.73-45.35,38.28-92.29,112.86-94.81,112.62-3.78,227.75-17.7,331.51-74.41,59.75-32.37,115.58-79.03,165.51-146.24Zm4.96,14.56c21.96-28.71,34.18-65.12,45.89-100.41,15.83-47.17,30.68-91.53,66.72-113.78l-.9-1.49c-36.72,22.62-51.53,67.53-67.59,114.82-11.84,35.07-23.83,71.36-45.57,99.95-68.67,89.93-149.71,150.64-248.33,185.84-79.81,28.32-169.66,40.61-290.84,39.15-81.4-.83-89.44,52.28-97.15,103.5-5.38,36.36-10.55,70.62-42.49,82.41-63.89,23.58-180.8,21.77-274.51,20.32-23.2-.35-44.88-.67-63.66-.61-23.16.2-47.99-7.76-71.99-15.32-29.42-9.13-56.85-17.93-81.7-13.13-58.28,11.18-59.19,78.51-60.06,127.7-.19,17.38-.43,32.23-3.25,40.86l1.76.45c2.92-8.96,3.02-24.03,3.44-41.53.68-48.52,1.88-114.88,58.43-125.96,24.04-4.65,51.7,4.03,80.54,13.19,23.99,7.57,49.05,15.39,72.56,15.29,18.77-.06,40.46.26,63.65.61,94.07,1.55,210.98,3.36,275.32-20.47,32.61-12.16,37.97-47.09,43.67-83.9,7.51-50.55,15.5-102.78,95.16-101.85,121.62,1.21,211.6-10.86,291.64-39.3,26.31-9.28,51.45-20.47,75.43-33.58,66.12-36.13,123.45-86.72,173.8-152.76Zm4.96,14.56c23.5-30.12,35.81-68.84,47.6-106.44,14.87-47.77,29.2-92.99,64.89-115.33l-.91-1.49c-36.23,22.91-50.43,68.34-65.75,116.36-11.7,37.26-23.87,76.2-47.28,105.99-75.77,96.92-163.98,161.55-269.43,196.81-85.81,28.77-185.38,39.29-313.57,33.17-28.94-1.46-49.23,3.97-62.47,16.58-21.77,20.68-19.58,57.71-17.23,93.53,2.43,40.87,4.95,79.42-26.76,93.07-64.54,27.91-220.26,11.34-313.47,1.39-10.49-1.06-20.41-2.15-28.92-2.88-17.14-1.68-36.37-7.31-56.8-13.42-30.93-9.15-62.92-18.58-87.95-13.11-55.78,12.36-53.07,85.64-51.44,134.03.44,14.49.87,26.99-.42,34.21l1.99.32c1.52-7.34.95-20.06.51-34.55-1.59-47.84-4.01-120.15,50.04-132.42,24.46-5.43,56.45,3.99,87.02,13.05,20.43,6.11,39.66,11.74,57.03,13.3,8.63.95,18.42,1.83,28.92,2.89,93.21,9.95,249.51,26.49,314.27-1.55,1.47-.52,2.82-1.25,4.16-1.99,28.46-15.56,26.24-53.14,23.65-92.79-2.09-35.39-4.38-72.09,16.85-92.19,12.69-12.03,32.76-17.33,60.99-16.05,128.54,6.22,228.34-4.43,314.38-33.32,30.53-10.17,59.52-22.9,87.31-38.09,68.26-37.02,128.7-89.88,182.79-159.09Zm-684.62,363.96c-9.13-38.62-18.58-78.77.53-99.41,11.19-12.06,30.7-16.78,60.16-14.47,137.19,11.12,244.41,2.37,337.24-27.13,112.48-35.98,207.89-103.99,291.3-208.48,25.17-31.31,37.2-72.44,48.86-112.23,14.35-48.63,27.72-94.45,63.15-117.21l-1.13-1.37c-35.88,23.01-49.56,69.29-63.79,118.13-11.66,39.79-23.83,80.7-48.54,111.77-83.09,104.04-178.15,172.13-290.53,207.77-92.48,29.59-199.47,38.21-336.44,26.97-30.17-2.49-50.14,2.48-61.64,14.99-19.65,21.22-10.16,61.91-1.01,101.09,10.57,44.92,20.51,87.35-9.3,103.64-.45.25-.9.49-1.34.73-27.41,13.85-86.24,16.26-170.01,7.1-64.28-7.07-134.85-20.04-176.5-30.13-9.06-2.13-19.69-5.38-31.02-8.82-34.23-10.17-77.21-22.94-104.81-15.79-53.46,14.21-45.8,98.1-41.81,143.5,1.03,11.05,1.81,19.69,1.44,24.99l1.86.11c.24-5.51-.54-14.15-1.57-25.2-4.05-44.51-11.55-127.65,40.8-141.24,27.02-7.12,69.64,5.56,103.65,15.86,11.34,3.43,21.97,6.68,31.25,8.69,69.16,16.58,281.47,56.03,347.66,22.97l1.34-.74c31.02-17.24,20.55-62.49,10.19-106.11Zm-17.05,142.99c32.43-18.86,13.15-69.77-5.54-118.75-15.94-41.98-32.43-85.36-14.96-106.24,9.93-11.66,29.26-15.71,59.59-12.46,145.84,16.02,260.25,9.29,359.75-21.02,119.41-36.37,221.54-108.05,312.4-219.44,26.47-32.59,38.6-76.04,50.12-118.02,13.61-49.35,26.46-96.03,61.54-118.88l-.78-1.28c-35.75,23.22-48.7,70.23-62.4,119.91-11.65,41.77-23.55,85.09-49.93,117.35-90.54,110.93-192.45,182.49-311.5,218.95-99.28,30.19-213.47,36.8-358.95,20.87-31.04-3.43-51.04.99-61.29,13.11-18.11,21.79-2.3,63.56,14.71,107.79,18.3,48.34,37.29,98.28,6.33,116.61-33.2,19.56-122.87,8.53-173.21.36-77.14-12.5-148.95-32.45-177.29-44.71-27.15-11.78-93.8-32.57-127.13-22.56-53.9,16.43-37.06,119.38-30.72,157.83.72,4.14,1.41,7.72,1.67,10.13l1.95-.22c-.39-2.62-.95-6-1.67-10.13-6.2-38.24-22.85-139.88,29.35-155.66,29.9-9.26,91.43,7.52,125.62,22.54,59.89,25.89,290.82,77.82,351.11,44.87.32-.46.77-.7,1.22-.95Z"/>
  <g class="cls-1">
    <path class="cls-3" d="m0,815.47l767.48,1263.93,1492.14-815.47L1492.14,0,0,815.47Z"/>
  </g>
</svg>